%TF.GenerationSoftware,KiCad,Pcbnew,8.0.6*%
%TF.CreationDate,2024-11-15T02:18:49-05:00*%
%TF.ProjectId,LED,4c45442e-6b69-4636-9164-5f7063625858,rev?*%
%TF.SameCoordinates,Original*%
%TF.FileFunction,Copper,L2,Bot*%
%TF.FilePolarity,Positive*%
%FSLAX46Y46*%
G04 Gerber Fmt 4.6, Leading zero omitted, Abs format (unit mm)*
G04 Created by KiCad (PCBNEW 8.0.6) date 2024-11-15 02:18:49*
%MOMM*%
%LPD*%
G01*
G04 APERTURE LIST*
G04 Aperture macros list*
%AMRoundRect*
0 Rectangle with rounded corners*
0 $1 Rounding radius*
0 $2 $3 $4 $5 $6 $7 $8 $9 X,Y pos of 4 corners*
0 Add a 4 corners polygon primitive as box body*
4,1,4,$2,$3,$4,$5,$6,$7,$8,$9,$2,$3,0*
0 Add four circle primitives for the rounded corners*
1,1,$1+$1,$2,$3*
1,1,$1+$1,$4,$5*
1,1,$1+$1,$6,$7*
1,1,$1+$1,$8,$9*
0 Add four rect primitives between the rounded corners*
20,1,$1+$1,$2,$3,$4,$5,0*
20,1,$1+$1,$4,$5,$6,$7,0*
20,1,$1+$1,$6,$7,$8,$9,0*
20,1,$1+$1,$8,$9,$2,$3,0*%
G04 Aperture macros list end*
%TA.AperFunction,Conductor*%
%ADD10C,0.200000*%
%TD*%
%TA.AperFunction,ComponentPad*%
%ADD11R,3.500000X3.500000*%
%TD*%
%TA.AperFunction,ComponentPad*%
%ADD12RoundRect,0.750000X0.750000X1.000000X-0.750000X1.000000X-0.750000X-1.000000X0.750000X-1.000000X0*%
%TD*%
%TA.AperFunction,ComponentPad*%
%ADD13RoundRect,0.875000X0.875000X0.875000X-0.875000X0.875000X-0.875000X-0.875000X0.875000X-0.875000X0*%
%TD*%
%TA.AperFunction,ViaPad*%
%ADD14C,0.600000*%
%TD*%
%TA.AperFunction,Conductor*%
%ADD15C,0.400000*%
%TD*%
%TA.AperFunction,Conductor*%
%ADD16C,0.500000*%
%TD*%
%TA.AperFunction,Conductor*%
%ADD17C,1.000000*%
%TD*%
G04 APERTURE END LIST*
%TO.N,Net-(LED5-A_1)*%
D10*
X118725000Y-86650000D02*
X123325000Y-86650000D01*
X123325000Y-101200000D01*
X118725000Y-101200000D01*
X118725000Y-86650000D01*
%TA.AperFunction,Conductor*%
G36*
X118725000Y-86650000D02*
G01*
X123325000Y-86650000D01*
X123325000Y-101200000D01*
X118725000Y-101200000D01*
X118725000Y-86650000D01*
G37*
%TD.AperFunction*%
%TO.N,Net-(LED1-A_1)*%
X153277798Y-88999079D02*
X148677798Y-99449079D01*
X146077798Y-96949079D01*
X151527798Y-86249079D01*
X153277798Y-88999079D01*
%TA.AperFunction,Conductor*%
G36*
X153277798Y-88999079D02*
G01*
X148677798Y-99449079D01*
X146077798Y-96949079D01*
X151527798Y-86249079D01*
X153277798Y-88999079D01*
G37*
%TD.AperFunction*%
%TO.N,Net-(LED7-A_1)*%
X139475000Y-88700000D02*
X134875000Y-99150000D01*
X132275000Y-96650000D01*
X136425000Y-87550000D01*
X139475000Y-88700000D01*
%TA.AperFunction,Conductor*%
G36*
X139475000Y-88700000D02*
G01*
X134875000Y-99150000D01*
X132275000Y-96650000D01*
X136425000Y-87550000D01*
X139475000Y-88700000D01*
G37*
%TD.AperFunction*%
%TO.N,Net-(LED6-A_1)*%
X131475000Y-96600000D02*
X128875000Y-99100000D01*
X124275000Y-88650000D01*
X127075000Y-86800000D01*
X131475000Y-96600000D01*
%TA.AperFunction,Conductor*%
G36*
X131475000Y-96600000D02*
G01*
X128875000Y-99100000D01*
X124275000Y-88650000D01*
X127075000Y-86800000D01*
X131475000Y-96600000D01*
G37*
%TD.AperFunction*%
%TO.N,Net-(LED2-A_1)*%
X160675000Y-98400000D02*
X158075000Y-100900000D01*
X153475000Y-90450000D01*
X155225000Y-87700000D01*
X160675000Y-98400000D01*
%TA.AperFunction,Conductor*%
G36*
X160675000Y-98400000D02*
G01*
X158075000Y-100900000D01*
X153475000Y-90450000D01*
X155225000Y-87700000D01*
X160675000Y-98400000D01*
G37*
%TD.AperFunction*%
%TO.N,Net-(LED3-A_1)*%
X167825000Y-88950000D02*
X163225000Y-99400000D01*
X160625000Y-96900000D01*
X166080000Y-86550000D01*
X167825000Y-88950000D01*
%TA.AperFunction,Conductor*%
G36*
X167825000Y-88950000D02*
G01*
X163225000Y-99400000D01*
X160625000Y-96900000D01*
X166080000Y-86550000D01*
X167825000Y-88950000D01*
G37*
%TD.AperFunction*%
%TO.N,Net-(LED1-K_1)*%
X146425000Y-98800000D02*
X143825000Y-101300000D01*
X139225000Y-90850000D01*
X140975000Y-88100000D01*
X146425000Y-98800000D01*
%TA.AperFunction,Conductor*%
G36*
X146425000Y-98800000D02*
G01*
X143825000Y-101300000D01*
X139225000Y-90850000D01*
X140975000Y-88100000D01*
X146425000Y-98800000D01*
G37*
%TD.AperFunction*%
%TD*%
D11*
%TO.P,J1,1*%
%TO.N,+12V*%
X261400000Y-92357500D03*
D12*
%TO.P,J1,2*%
%TO.N,GND*%
X267400000Y-92357500D03*
D13*
%TO.P,J1,3*%
%TO.N,N/C*%
X264400000Y-87657500D03*
%TD*%
D14*
%TO.N,Net-(LED1-K_1)*%
X143525000Y-93850000D03*
X141975000Y-95450000D03*
X141575000Y-94600000D03*
X142625000Y-93600000D03*
X142625000Y-94600000D03*
%TO.N,Net-(LED1-A_1)*%
X148375000Y-93200000D03*
X148525000Y-94050000D03*
X149425000Y-94150000D03*
X149575000Y-95050000D03*
X150425000Y-95000000D03*
%TO.N,Net-(LED2-A_1)*%
X157125000Y-94450000D03*
X156025000Y-95450000D03*
X155975000Y-94000000D03*
X158075000Y-93500000D03*
X157025000Y-93050000D03*
%TO.N,Net-(LED3-A_1)*%
X164425000Y-94350000D03*
X163275000Y-94800000D03*
X163375000Y-93400000D03*
X162325000Y-93850000D03*
X164375000Y-95800000D03*
%TO.N,Net-(LED5-A_1)*%
X119225000Y-92150000D03*
X122925000Y-95350000D03*
X119075000Y-91300000D03*
X121225000Y-93300000D03*
X121925000Y-94500000D03*
X121175000Y-94250000D03*
X122075000Y-95400000D03*
X120125000Y-92250000D03*
X120275000Y-93150000D03*
%TO.N,Net-(LED6-A_1)*%
X127925000Y-96000000D03*
X129025000Y-95000000D03*
X129975000Y-94050000D03*
X128925000Y-93600000D03*
X127875000Y-94550000D03*
%TO.N,Net-(LED7-A_1)*%
X134875000Y-94900000D03*
X135975000Y-95900000D03*
X133925000Y-93950000D03*
X134975000Y-93500000D03*
X136025000Y-94450000D03*
%TO.N,GND*%
X226770000Y-91900000D03*
X264450000Y-92800000D03*
X264450000Y-91400000D03*
X211500000Y-98512500D03*
X252710000Y-98410000D03*
X227500000Y-98600000D03*
X254540000Y-96450000D03*
X180080000Y-101600000D03*
X214910000Y-86240000D03*
X221175000Y-91775000D03*
X233160000Y-101600000D03*
X240400000Y-92400000D03*
X209550000Y-100337500D03*
X234120000Y-89720000D03*
X245550000Y-92550000D03*
X113900000Y-90360000D03*
X234530000Y-100140000D03*
X259720000Y-95370000D03*
X255400000Y-89400000D03*
X250300000Y-94250000D03*
X264450000Y-94150000D03*
%TO.N,+24V*%
X234025000Y-93650000D03*
X230470000Y-101080000D03*
X236250000Y-93110000D03*
X224200000Y-99425000D03*
X231060000Y-100490000D03*
X237075000Y-93110000D03*
%TO.N,Net-(D1-K)*%
X216875000Y-97650000D03*
X204450000Y-96025000D03*
%TO.N,Net-(IC1-ISN)*%
X221400000Y-98250000D03*
X170425000Y-96525000D03*
%TO.N,Net-(IC1-DH2)*%
X214900000Y-96950000D03*
X239975000Y-95700000D03*
%TO.N,Net-(IC1-LX2)*%
X216025000Y-96250000D03*
X208200000Y-96350000D03*
X232410051Y-95449999D03*
X213175000Y-96300000D03*
%TO.N,Net-(IC1-DL2)*%
X241325000Y-96575000D03*
X211025000Y-97075000D03*
%TO.N,Net-(IC1-DL1)*%
X255750000Y-99400000D03*
X237300000Y-88100000D03*
X216550000Y-94350000D03*
%TO.N,Net-(IC1-DH1)*%
X213850000Y-93350000D03*
X240700000Y-94750000D03*
X249600000Y-91400000D03*
X244500000Y-94750000D03*
%TO.N,Net-(Q1B-S2)*%
X237275000Y-95575000D03*
X232670709Y-96250000D03*
%TD*%
D15*
%TO.N,Net-(Q1B-S2)*%
X234207105Y-95350000D02*
G75*
G03*
X233120706Y-95799997I-5J-1536400D01*
G01*
%TO.N,Net-(IC1-DH1)*%
X217352082Y-94750000D02*
G75*
G03*
X216989966Y-94900016I18J-512100D01*
G01*
X246868718Y-94131281D02*
G75*
G02*
X245375000Y-94750010I-1493718J1493681D01*
G01*
X216989950Y-94900000D02*
G75*
G02*
X216627817Y-95050022I-362150J362100D01*
G01*
X215093933Y-94593933D02*
G75*
G03*
X216194975Y-95050020I1101067J1101033D01*
G01*
%TO.N,Net-(IC1-DL1)*%
X241050000Y-89100000D02*
G75*
G02*
X242049994Y-91514213I-2414200J-2414200D01*
G01*
X224453963Y-88050000D02*
G75*
G03*
X220606236Y-89643821I37J-5441500D01*
G01*
X253843792Y-97493792D02*
G75*
G03*
X249996036Y-95899989I-3847792J-3847808D01*
G01*
X241022271Y-89072271D02*
G75*
G03*
X238675000Y-88099987I-2347271J-2347229D01*
G01*
X242050000Y-92485786D02*
G75*
G03*
X243049996Y-94900004I3414200J-14D01*
G01*
X216779809Y-93470190D02*
G75*
G03*
X216549994Y-94025000I554791J-554810D01*
G01*
X243050000Y-94900000D02*
G75*
G03*
X245464213Y-95899994I2414200J2414200D01*
G01*
X237275000Y-88075000D02*
G75*
G03*
X237214644Y-88049982I-60400J-60400D01*
G01*
%TO.N,Net-(IC1-DL2)*%
X213788972Y-97712500D02*
G75*
G03*
X215328033Y-98349965I1539028J1539100D01*
G01*
X218530635Y-97550000D02*
G75*
G03*
X217564929Y-97949979I-35J-1365700D01*
G01*
X213788972Y-97712500D02*
G75*
G03*
X212249910Y-97075004I-1539072J-1539100D01*
G01*
X217564950Y-97950000D02*
G75*
G02*
X216599264Y-98349971I-965650J965700D01*
G01*
X240837500Y-97062500D02*
G75*
G02*
X239660570Y-97549988I-1176900J1176900D01*
G01*
D16*
%TO.N,Net-(IC1-LX2)*%
X232010050Y-95849999D02*
G75*
G02*
X231044363Y-96249970I-965650J965699D01*
G01*
D15*
X208285355Y-96300000D02*
G75*
G03*
X208225013Y-96325013I45J-85400D01*
G01*
D16*
X216212500Y-96250000D02*
X216087500Y-96250000D01*
D15*
%TO.N,Net-(IC1-DH2)*%
X239350000Y-96325000D02*
G75*
G02*
X237841116Y-96950007I-1508900J1508900D01*
G01*
%TO.N,Net-(IC1-ISN)*%
X171831250Y-98106250D02*
G75*
G03*
X175528014Y-99637494I3696750J3696750D01*
G01*
X220706250Y-98943750D02*
G75*
G02*
X219031389Y-99637496I-1674850J1674850D01*
G01*
%TO.N,Net-(D1-K)*%
X213867677Y-96002727D02*
G75*
G02*
X214199988Y-96805025I-802277J-802273D01*
G01*
X214200000Y-97009834D02*
G75*
G03*
X214387510Y-97462490I640200J34D01*
G01*
X213832475Y-95967525D02*
G75*
G03*
X212945191Y-95600004I-887275J-887275D01*
G01*
X205175520Y-95600000D02*
G75*
G03*
X204662494Y-95812494I-20J-725500D01*
G01*
X214387500Y-97462500D02*
G75*
G03*
X214840165Y-97650014I452700J452700D01*
G01*
D17*
%TO.N,+24V*%
X230460000Y-101090000D02*
G75*
G02*
X230435857Y-101099983I-24100J24100D01*
G01*
X225037500Y-100262500D02*
G75*
G03*
X227059403Y-101099998I2021900J2021900D01*
G01*
X235980000Y-93380000D02*
G75*
G02*
X235328162Y-93649984I-651800J651800D01*
G01*
X231060000Y-100490000D02*
X230470000Y-101080000D01*
X230460000Y-101090000D02*
X230470000Y-101080000D01*
X234025000Y-93650000D02*
X235328162Y-93650000D01*
X224200000Y-99425000D02*
X225037500Y-100262500D01*
X230435857Y-101100000D02*
X227059403Y-101100000D01*
X236250000Y-93110000D02*
X235980000Y-93380000D01*
X236250000Y-93110000D02*
X237075000Y-93110000D01*
D15*
%TO.N,Net-(D1-K)*%
X212945191Y-95600000D02*
X205175520Y-95600000D01*
X204662500Y-95812500D02*
X204450000Y-96025000D01*
X216875000Y-97650000D02*
X214840165Y-97650000D01*
X214200000Y-96805025D02*
X214200000Y-97009834D01*
X213867677Y-96002727D02*
X213832475Y-95967525D01*
%TO.N,Net-(IC1-ISN)*%
X171831250Y-98106250D02*
X170300000Y-96575000D01*
X220706250Y-98943750D02*
X221400000Y-98250000D01*
X175528014Y-99637500D02*
X219031389Y-99637500D01*
%TO.N,Net-(IC1-DH2)*%
X239975000Y-95700000D02*
X239350000Y-96325000D01*
X214900000Y-96950000D02*
X237841116Y-96950000D01*
%TO.N,Net-(IC1-LX2)*%
X208285355Y-96300000D02*
X213175000Y-96300000D01*
D16*
X232010050Y-95849999D02*
X232410051Y-95449999D01*
D15*
X216087500Y-96250000D02*
X216025000Y-96250000D01*
X208225000Y-96325000D02*
X208200000Y-96350000D01*
D16*
X216212500Y-96250000D02*
X231044363Y-96250000D01*
D15*
%TO.N,Net-(IC1-DL2)*%
X212249910Y-97075000D02*
X211025000Y-97075000D01*
X218530635Y-97550000D02*
X239660570Y-97550000D01*
X240837500Y-97062500D02*
X241325000Y-96575000D01*
X215328033Y-98350000D02*
X216599264Y-98350000D01*
%TO.N,Net-(IC1-DL1)*%
X242050000Y-91514213D02*
X242050000Y-92485786D01*
X224453963Y-88050000D02*
X237214644Y-88050000D01*
X249996036Y-95900000D02*
X245464213Y-95900000D01*
X237300000Y-88100000D02*
X237275000Y-88075000D01*
X220606207Y-89643792D02*
X216779809Y-93470190D01*
X255750000Y-99400000D02*
X253843792Y-97493792D01*
X241050000Y-89100000D02*
X241022271Y-89072271D01*
X238675000Y-88100000D02*
X237300000Y-88100000D01*
X216550000Y-94350000D02*
X216550000Y-94025000D01*
%TO.N,Net-(IC1-DH1)*%
X217352082Y-94750000D02*
X240700000Y-94750000D01*
X216627817Y-95050000D02*
X216194975Y-95050000D01*
X246868718Y-94131281D02*
X249600000Y-91400000D01*
X245375000Y-94750000D02*
X244500000Y-94750000D01*
X215093933Y-94593933D02*
X213850000Y-93350000D01*
%TO.N,Net-(Q1B-S2)*%
X234207105Y-95350000D02*
X237050000Y-95350000D01*
X232670709Y-96250000D02*
X233120709Y-95800000D01*
%TD*%
%TA.AperFunction,Conductor*%
%TO.N,GND*%
G36*
X151221851Y-85520185D02*
G01*
X151267606Y-85572989D01*
X151277550Y-85642147D01*
X151248525Y-85705703D01*
X151208212Y-85736413D01*
X151197946Y-85741311D01*
X151077766Y-85843984D01*
X151033010Y-85909125D01*
X150988254Y-85974265D01*
X148545472Y-90770184D01*
X145890512Y-95982673D01*
X145842545Y-96033476D01*
X145774726Y-96050281D01*
X145708588Y-96027753D01*
X145669526Y-95982673D01*
X143520980Y-91764428D01*
X141514544Y-87825186D01*
X141511944Y-87820141D01*
X141507217Y-87813398D01*
X141421219Y-87690710D01*
X141421218Y-87690709D01*
X141421216Y-87690706D01*
X141300078Y-87589163D01*
X141300076Y-87589162D01*
X141156788Y-87522433D01*
X141156788Y-87522432D01*
X141001107Y-87495063D01*
X140843649Y-87508919D01*
X140695141Y-87563056D01*
X140695137Y-87563058D01*
X140565710Y-87653780D01*
X140565706Y-87653784D01*
X140464160Y-87774925D01*
X140134109Y-88293577D01*
X140081510Y-88339567D01*
X140012397Y-88349819D01*
X139948712Y-88321079D01*
X139944676Y-88317457D01*
X139943285Y-88316153D01*
X139943285Y-88316152D01*
X139827981Y-88208030D01*
X139688623Y-88133435D01*
X139688616Y-88133432D01*
X139688613Y-88133431D01*
X136638633Y-86983438D01*
X136638611Y-86983431D01*
X136525093Y-86952830D01*
X136367126Y-86947271D01*
X136367123Y-86947272D01*
X136213103Y-86982787D01*
X136213100Y-86982788D01*
X136073512Y-87056961D01*
X135957884Y-87164731D01*
X135957879Y-87164736D01*
X135874090Y-87298747D01*
X132001198Y-95791109D01*
X131955471Y-95843937D01*
X131888442Y-95863657D01*
X131821392Y-95844008D01*
X131775609Y-95791228D01*
X131775255Y-95790446D01*
X131765821Y-95769435D01*
X130683211Y-93358165D01*
X127627381Y-86551997D01*
X127580187Y-86466209D01*
X127476584Y-86346832D01*
X127476583Y-86346831D01*
X127345616Y-86258338D01*
X127196207Y-86206755D01*
X127196201Y-86206754D01*
X127038528Y-86195599D01*
X127038527Y-86195599D01*
X127038526Y-86195599D01*
X126883341Y-86225633D01*
X126741216Y-86294809D01*
X126741214Y-86294810D01*
X125069251Y-87399500D01*
X124117856Y-88028100D01*
X124051071Y-88048632D01*
X123983788Y-88029799D01*
X123937367Y-87977579D01*
X123925500Y-87924642D01*
X123925500Y-86570945D01*
X123925500Y-86570943D01*
X123884577Y-86418216D01*
X123843364Y-86346832D01*
X123805524Y-86281290D01*
X123805518Y-86281282D01*
X123693717Y-86169481D01*
X123693709Y-86169475D01*
X123556790Y-86090426D01*
X123556786Y-86090424D01*
X123556784Y-86090423D01*
X123404057Y-86049500D01*
X118804057Y-86049500D01*
X118645943Y-86049500D01*
X118493216Y-86090423D01*
X118493209Y-86090426D01*
X118356290Y-86169475D01*
X118356282Y-86169481D01*
X118244481Y-86281282D01*
X118244475Y-86281290D01*
X118165426Y-86418209D01*
X118165423Y-86418216D01*
X118124500Y-86570943D01*
X118124500Y-101279057D01*
X118165003Y-101430214D01*
X118165423Y-101431783D01*
X118165426Y-101431790D01*
X118244475Y-101568709D01*
X118244479Y-101568714D01*
X118244480Y-101568716D01*
X118356284Y-101680520D01*
X118356286Y-101680521D01*
X118356290Y-101680524D01*
X118453188Y-101736467D01*
X118493216Y-101759577D01*
X118645943Y-101800500D01*
X118645945Y-101800500D01*
X123404055Y-101800500D01*
X123404057Y-101800500D01*
X123556784Y-101759577D01*
X123693716Y-101680520D01*
X123805520Y-101568716D01*
X123884577Y-101431784D01*
X123925500Y-101279057D01*
X123925500Y-89948410D01*
X123945185Y-89881371D01*
X123997989Y-89835616D01*
X124067147Y-89825672D01*
X124130703Y-89854697D01*
X124162990Y-89898451D01*
X128313118Y-99326460D01*
X128320816Y-99343946D01*
X128344788Y-99392414D01*
X128344790Y-99392418D01*
X128416306Y-99489500D01*
X128438536Y-99519677D01*
X128562028Y-99618342D01*
X128706849Y-99681683D01*
X128863130Y-99705384D01*
X129020219Y-99687828D01*
X129127047Y-99646013D01*
X129167410Y-99630214D01*
X129167410Y-99630213D01*
X129167412Y-99630213D01*
X129294677Y-99536464D01*
X131763056Y-97163021D01*
X131825021Y-97130746D01*
X131894602Y-97137096D01*
X131934944Y-97163023D01*
X134455320Y-99586462D01*
X134495927Y-99622159D01*
X134495932Y-99622163D01*
X134631050Y-99704182D01*
X134631051Y-99704182D01*
X134631053Y-99704184D01*
X134782799Y-99748439D01*
X134827950Y-99749431D01*
X134940823Y-99751911D01*
X134940823Y-99751910D01*
X134940828Y-99751911D01*
X135094371Y-99714364D01*
X135232964Y-99638356D01*
X135347163Y-99529068D01*
X135429184Y-99393947D01*
X138763303Y-91819694D01*
X138808328Y-91766269D01*
X138875091Y-91745666D01*
X138942395Y-91764428D01*
X138988870Y-91816599D01*
X138990273Y-91819670D01*
X143270816Y-101543947D01*
X143294787Y-101592412D01*
X143294788Y-101592414D01*
X143294790Y-101592418D01*
X143359691Y-101680520D01*
X143388536Y-101719677D01*
X143512028Y-101818342D01*
X143656849Y-101881683D01*
X143813130Y-101905384D01*
X143970219Y-101887828D01*
X144023077Y-101867138D01*
X144117410Y-101830214D01*
X144117410Y-101830213D01*
X144117412Y-101830213D01*
X144244677Y-101736464D01*
X145950067Y-100096666D01*
X146844668Y-99236473D01*
X146844671Y-99236470D01*
X146844671Y-99236468D01*
X146844677Y-99236464D01*
X146930031Y-99133164D01*
X146932765Y-99129855D01*
X146932765Y-99129854D01*
X146932768Y-99129851D01*
X147000838Y-98987192D01*
X147007754Y-98949903D01*
X147039334Y-98887581D01*
X147099596Y-98852223D01*
X147169408Y-98855059D01*
X147215616Y-98883134D01*
X148006853Y-99643939D01*
X148258129Y-99885551D01*
X148298725Y-99921238D01*
X148298730Y-99921242D01*
X148433848Y-100003261D01*
X148433849Y-100003261D01*
X148433851Y-100003263D01*
X148585597Y-100047518D01*
X148630748Y-100048510D01*
X148743621Y-100050990D01*
X148743621Y-100050989D01*
X148743626Y-100050990D01*
X148897169Y-100013443D01*
X149035762Y-99937435D01*
X149149961Y-99828147D01*
X149231982Y-99693026D01*
X151124312Y-95394143D01*
X151132794Y-95378159D01*
X151150789Y-95349522D01*
X151175688Y-95278360D01*
X151179219Y-95269409D01*
X152943566Y-91261272D01*
X152988591Y-91207846D01*
X153055354Y-91187243D01*
X153122658Y-91206005D01*
X153169133Y-91258176D01*
X153170536Y-91261248D01*
X157513701Y-101127784D01*
X157520816Y-101143946D01*
X157544788Y-101192414D01*
X157544790Y-101192418D01*
X157626458Y-101303282D01*
X157638536Y-101319677D01*
X157762028Y-101418342D01*
X157906849Y-101481683D01*
X158063130Y-101505384D01*
X158220219Y-101487828D01*
X158244493Y-101478326D01*
X158367410Y-101430214D01*
X158367410Y-101430213D01*
X158367412Y-101430213D01*
X158494677Y-101336464D01*
X159784067Y-100096666D01*
X161094668Y-98836473D01*
X161094671Y-98836470D01*
X161094671Y-98836468D01*
X161094677Y-98836464D01*
X161163970Y-98752602D01*
X161182765Y-98729855D01*
X161182765Y-98729854D01*
X161182768Y-98729851D01*
X161250838Y-98587192D01*
X161250838Y-98587190D01*
X161254338Y-98579856D01*
X161255823Y-98580564D01*
X161289871Y-98530784D01*
X161354232Y-98503593D01*
X161423077Y-98515514D01*
X161454299Y-98537403D01*
X162805320Y-99836462D01*
X162845927Y-99872159D01*
X162845932Y-99872163D01*
X162981050Y-99954182D01*
X162981051Y-99954182D01*
X162981053Y-99954184D01*
X163132799Y-99998439D01*
X163177950Y-99999431D01*
X163290823Y-100001911D01*
X163290823Y-100001910D01*
X163290828Y-100001911D01*
X163444371Y-99964364D01*
X163582964Y-99888356D01*
X163697163Y-99779068D01*
X163779184Y-99643947D01*
X165099737Y-96643996D01*
X169599499Y-96643996D01*
X169626418Y-96779322D01*
X169626421Y-96779332D01*
X169679222Y-96906807D01*
X169755887Y-97021545D01*
X169755888Y-97021546D01*
X171302407Y-98568064D01*
X171302419Y-98568086D01*
X171485616Y-98751282D01*
X171485628Y-98751293D01*
X171485639Y-98751304D01*
X171578509Y-98831776D01*
X171805687Y-99028628D01*
X172144684Y-99282397D01*
X172144689Y-99282400D01*
X172500940Y-99511348D01*
X172638501Y-99586462D01*
X172869981Y-99712860D01*
X172872615Y-99714298D01*
X173257822Y-99890215D01*
X173654597Y-100038204D01*
X173654604Y-100038206D01*
X173654612Y-100038209D01*
X174060916Y-100157509D01*
X174060926Y-100157512D01*
X174474710Y-100247524D01*
X174474717Y-100247525D01*
X174893882Y-100307791D01*
X175316278Y-100338001D01*
X175528016Y-100338000D01*
X219031386Y-100338000D01*
X219100382Y-100338000D01*
X219106456Y-100338000D01*
X219106556Y-100337995D01*
X219182159Y-100337995D01*
X219182162Y-100337995D01*
X219482261Y-100308439D01*
X219778019Y-100249611D01*
X220066586Y-100162076D01*
X220345184Y-100046677D01*
X220611129Y-99904527D01*
X220861860Y-99736994D01*
X221094963Y-99545692D01*
X221143885Y-99496768D01*
X221143895Y-99496761D01*
X221152791Y-99487864D01*
X221152793Y-99487864D01*
X221599292Y-99041363D01*
X221646013Y-99012007D01*
X221749522Y-98975789D01*
X221902262Y-98879816D01*
X222029816Y-98752262D01*
X222125789Y-98599522D01*
X222185368Y-98429255D01*
X222193102Y-98360617D01*
X222220168Y-98296203D01*
X222277763Y-98256648D01*
X222316322Y-98250500D01*
X223797672Y-98250500D01*
X223864711Y-98270185D01*
X223910466Y-98322989D01*
X223920410Y-98392147D01*
X223891385Y-98455703D01*
X223845125Y-98489061D01*
X223726089Y-98538367D01*
X223726079Y-98538372D01*
X223562219Y-98647860D01*
X223562215Y-98647863D01*
X223422863Y-98787215D01*
X223422860Y-98787219D01*
X223313372Y-98951079D01*
X223313367Y-98951089D01*
X223237949Y-99133163D01*
X223237947Y-99133171D01*
X223199500Y-99326455D01*
X223199500Y-99523544D01*
X223237947Y-99716828D01*
X223237949Y-99716836D01*
X223313367Y-99898910D01*
X223313372Y-99898920D01*
X223422860Y-100062780D01*
X223422863Y-100062784D01*
X224264484Y-100904404D01*
X224293720Y-100933640D01*
X224293721Y-100933642D01*
X224330039Y-100969960D01*
X224330039Y-100969961D01*
X224449205Y-101089128D01*
X224495269Y-101127780D01*
X224707402Y-101305781D01*
X224983485Y-101499096D01*
X224983492Y-101499100D01*
X224983503Y-101499108D01*
X225257066Y-101657050D01*
X225275393Y-101667631D01*
X225275417Y-101667644D01*
X225580861Y-101810074D01*
X225580866Y-101810075D01*
X225580875Y-101810080D01*
X225897602Y-101925360D01*
X225897608Y-101925361D01*
X225897612Y-101925363D01*
X225986274Y-101949119D01*
X226223172Y-102012595D01*
X226555105Y-102071124D01*
X226890875Y-102100499D01*
X226890876Y-102100500D01*
X226890877Y-102100500D01*
X226960862Y-102100500D01*
X230451256Y-102100500D01*
X230451317Y-102100500D01*
X230516149Y-102100574D01*
X230516156Y-102100572D01*
X230519900Y-102100577D01*
X230521905Y-102100500D01*
X230534397Y-102100500D01*
X230534398Y-102100500D01*
X230599324Y-102087584D01*
X230604140Y-102086727D01*
X230677274Y-102075220D01*
X230695458Y-102069326D01*
X230709481Y-102065673D01*
X230727692Y-102062051D01*
X230740547Y-102056725D01*
X230740565Y-102056721D01*
X230751835Y-102052051D01*
X230751836Y-102052051D01*
X230758325Y-102049362D01*
X230767535Y-102045966D01*
X230832437Y-102024935D01*
X230894362Y-101993420D01*
X230903134Y-101989380D01*
X230909771Y-101986632D01*
X230909771Y-101986631D01*
X230921041Y-101981964D01*
X230921053Y-101981957D01*
X230933914Y-101976631D01*
X230948771Y-101966702D01*
X230961402Y-101959304D01*
X230977804Y-101950959D01*
X231038901Y-101906592D01*
X231042839Y-101903849D01*
X231097781Y-101867139D01*
X231247139Y-101717781D01*
X231837139Y-101127781D01*
X231946631Y-100963914D01*
X232022051Y-100781836D01*
X232060500Y-100588540D01*
X232060500Y-100391460D01*
X232060500Y-100391457D01*
X232060499Y-100391455D01*
X232043857Y-100307790D01*
X232022051Y-100198164D01*
X231946631Y-100016086D01*
X231946629Y-100016083D01*
X231946627Y-100016079D01*
X231837139Y-99852219D01*
X231837136Y-99852215D01*
X231697784Y-99712863D01*
X231697780Y-99712860D01*
X231533920Y-99603372D01*
X231533910Y-99603367D01*
X231351836Y-99527949D01*
X231351828Y-99527947D01*
X231158543Y-99489500D01*
X231158540Y-99489500D01*
X230961460Y-99489500D01*
X230961457Y-99489500D01*
X230768171Y-99527947D01*
X230768163Y-99527949D01*
X230586089Y-99603367D01*
X230586079Y-99603372D01*
X230422219Y-99712860D01*
X230422215Y-99712863D01*
X230071899Y-100063181D01*
X230010576Y-100096666D01*
X229984218Y-100099500D01*
X227063469Y-100099500D01*
X227055359Y-100099235D01*
X226824869Y-100084128D01*
X226808788Y-100082010D01*
X226586253Y-100037745D01*
X226570585Y-100033547D01*
X226481371Y-100003263D01*
X226355729Y-99960613D01*
X226340744Y-99954406D01*
X226137240Y-99854049D01*
X226123194Y-99845939D01*
X225934532Y-99719880D01*
X225921663Y-99710006D01*
X225916391Y-99705383D01*
X225748023Y-99557728D01*
X225742101Y-99552181D01*
X224837784Y-98647863D01*
X224837780Y-98647860D01*
X224673920Y-98538372D01*
X224673910Y-98538367D01*
X224554875Y-98489061D01*
X224500472Y-98445220D01*
X224478407Y-98378926D01*
X224495686Y-98311226D01*
X224546824Y-98263616D01*
X224602328Y-98250500D01*
X239735568Y-98250500D01*
X239735807Y-98250488D01*
X239793370Y-98250489D01*
X240057324Y-98220753D01*
X240057334Y-98220750D01*
X240057340Y-98220750D01*
X240270183Y-98172171D01*
X240316290Y-98161649D01*
X240567009Y-98073921D01*
X240806329Y-97958673D01*
X241031241Y-97817353D01*
X241238915Y-97651740D01*
X241278661Y-97611993D01*
X241278671Y-97611985D01*
X241284040Y-97606615D01*
X241284043Y-97606614D01*
X241524292Y-97366363D01*
X241571013Y-97337007D01*
X241674522Y-97300789D01*
X241827262Y-97204816D01*
X241954816Y-97077262D01*
X242050789Y-96924522D01*
X242110368Y-96754255D01*
X242121115Y-96658874D01*
X242130565Y-96575003D01*
X242130565Y-96574996D01*
X242110369Y-96395750D01*
X242110368Y-96395745D01*
X242073685Y-96290912D01*
X242050789Y-96225478D01*
X242036201Y-96202262D01*
X241982628Y-96117001D01*
X241954816Y-96072738D01*
X241827262Y-95945184D01*
X241722337Y-95879255D01*
X241674523Y-95849211D01*
X241504254Y-95789631D01*
X241504249Y-95789630D01*
X241325004Y-95769435D01*
X241324996Y-95769435D01*
X241145750Y-95789630D01*
X241145745Y-95789631D01*
X240975475Y-95849211D01*
X240965641Y-95855391D01*
X240898404Y-95874390D01*
X240831569Y-95854021D01*
X240786356Y-95800752D01*
X240776451Y-95736511D01*
X240780565Y-95700001D01*
X240780565Y-95699998D01*
X240777362Y-95671574D01*
X240789416Y-95602752D01*
X240836764Y-95551372D01*
X240872994Y-95536797D01*
X240879251Y-95535368D01*
X240879255Y-95535368D01*
X241049522Y-95475789D01*
X241202262Y-95379816D01*
X241329816Y-95252262D01*
X241425789Y-95099522D01*
X241485368Y-94929255D01*
X241505565Y-94750000D01*
X241489565Y-94607999D01*
X241485369Y-94570750D01*
X241485368Y-94570745D01*
X241478563Y-94551297D01*
X241425789Y-94400478D01*
X241393963Y-94349828D01*
X241329815Y-94247737D01*
X241202262Y-94120184D01*
X241049523Y-94024211D01*
X240879254Y-93964631D01*
X240879249Y-93964630D01*
X240700004Y-93944435D01*
X240699996Y-93944435D01*
X240520750Y-93964630D01*
X240520745Y-93964631D01*
X240350474Y-94024212D01*
X240340477Y-94030494D01*
X240274506Y-94049500D01*
X237849784Y-94049500D01*
X237782745Y-94029815D01*
X237736990Y-93977011D01*
X237727046Y-93907853D01*
X237756071Y-93844297D01*
X237762103Y-93837819D01*
X237852136Y-93747785D01*
X237852139Y-93747782D01*
X237961632Y-93583914D01*
X238037051Y-93401835D01*
X238075500Y-93208541D01*
X238075500Y-93011459D01*
X238075500Y-93011456D01*
X238037052Y-92818170D01*
X238037051Y-92818169D01*
X238037051Y-92818165D01*
X238014352Y-92763364D01*
X237961635Y-92636092D01*
X237961628Y-92636079D01*
X237852139Y-92472218D01*
X237852136Y-92472214D01*
X237712785Y-92332863D01*
X237712781Y-92332860D01*
X237548920Y-92223371D01*
X237548907Y-92223364D01*
X237366839Y-92147950D01*
X237366829Y-92147947D01*
X237173543Y-92109500D01*
X237173541Y-92109500D01*
X236151459Y-92109500D01*
X236151454Y-92109500D01*
X236119391Y-92115876D01*
X236119392Y-92115877D01*
X235958170Y-92147946D01*
X235958164Y-92147948D01*
X235776088Y-92223366D01*
X235776079Y-92223371D01*
X235612219Y-92332859D01*
X235612215Y-92332862D01*
X235331901Y-92613177D01*
X235270578Y-92646662D01*
X235244220Y-92649496D01*
X235229699Y-92649496D01*
X235229615Y-92649500D01*
X233926457Y-92649500D01*
X233733170Y-92687947D01*
X233733160Y-92687950D01*
X233551092Y-92763364D01*
X233551079Y-92763371D01*
X233387218Y-92872860D01*
X233387214Y-92872863D01*
X233247863Y-93012214D01*
X233247860Y-93012218D01*
X233138371Y-93176079D01*
X233138364Y-93176092D01*
X233062950Y-93358160D01*
X233062947Y-93358170D01*
X233024500Y-93551456D01*
X233024500Y-93748545D01*
X233054887Y-93901309D01*
X233048660Y-93970900D01*
X233005797Y-94026078D01*
X232939907Y-94049322D01*
X232933270Y-94049500D01*
X217490517Y-94049500D01*
X217423478Y-94029815D01*
X217377723Y-93977011D01*
X217367779Y-93907853D01*
X217396804Y-93844297D01*
X217402836Y-93837819D01*
X219210840Y-92029815D01*
X221099842Y-90140813D01*
X221103300Y-90137488D01*
X221371344Y-89889707D01*
X221378706Y-89883419D01*
X221663422Y-89658961D01*
X221671281Y-89653250D01*
X221972736Y-89451820D01*
X221981020Y-89446744D01*
X222297335Y-89269595D01*
X222305988Y-89265187D01*
X222635225Y-89113402D01*
X222644205Y-89109682D01*
X222984336Y-88984198D01*
X222993577Y-88981195D01*
X223342505Y-88882784D01*
X223351964Y-88880513D01*
X223707530Y-88809785D01*
X223717135Y-88808263D01*
X224077168Y-88765648D01*
X224086838Y-88764887D01*
X224450507Y-88750595D01*
X224455376Y-88750500D01*
X236794932Y-88750500D01*
X236860904Y-88769506D01*
X236950477Y-88825789D01*
X236950481Y-88825790D01*
X237120737Y-88885366D01*
X237120743Y-88885367D01*
X237120745Y-88885368D01*
X237120746Y-88885368D01*
X237120750Y-88885369D01*
X237299996Y-88905565D01*
X237300000Y-88905565D01*
X237300004Y-88905565D01*
X237479249Y-88885369D01*
X237479252Y-88885368D01*
X237479255Y-88885368D01*
X237649522Y-88825789D01*
X237650488Y-88825181D01*
X237659523Y-88819506D01*
X237725494Y-88800500D01*
X238596073Y-88800500D01*
X238671519Y-88800500D01*
X238678472Y-88800695D01*
X238961294Y-88816578D01*
X238975095Y-88818133D01*
X239198803Y-88856142D01*
X239250920Y-88864998D01*
X239264477Y-88868092D01*
X239307591Y-88880513D01*
X239533335Y-88945550D01*
X239546432Y-88950133D01*
X239804933Y-89057208D01*
X239817440Y-89063231D01*
X240053928Y-89193936D01*
X240062309Y-89198568D01*
X240074081Y-89205965D01*
X240208416Y-89301282D01*
X240302254Y-89367865D01*
X240313125Y-89376534D01*
X240460950Y-89508641D01*
X240524509Y-89565441D01*
X240529562Y-89570219D01*
X240552195Y-89592852D01*
X240556974Y-89597906D01*
X240752817Y-89817054D01*
X240761475Y-89827911D01*
X240929524Y-90064754D01*
X240936917Y-90076519D01*
X241077389Y-90330685D01*
X241083422Y-90343214D01*
X241194544Y-90611490D01*
X241199137Y-90624614D01*
X241279531Y-90903665D01*
X241282625Y-90917223D01*
X241331265Y-91203504D01*
X241332822Y-91217322D01*
X241349305Y-91510846D01*
X241349500Y-91517798D01*
X241349500Y-92560204D01*
X241349505Y-92560317D01*
X241349505Y-92665439D01*
X241380819Y-93023378D01*
X241443209Y-93377209D01*
X241443213Y-93377226D01*
X241536202Y-93724274D01*
X241659092Y-94061914D01*
X241659095Y-94061922D01*
X241810932Y-94387540D01*
X241810945Y-94387564D01*
X241916707Y-94570750D01*
X241990594Y-94698726D01*
X241990598Y-94698732D01*
X241990605Y-94698743D01*
X242196682Y-94993052D01*
X242356486Y-95183498D01*
X242415345Y-95253644D01*
X242427641Y-95268297D01*
X242518349Y-95359005D01*
X242518357Y-95359020D01*
X242554668Y-95395331D01*
X242554668Y-95395332D01*
X242681701Y-95522366D01*
X242754478Y-95583433D01*
X242956943Y-95753322D01*
X243008800Y-95789632D01*
X243251271Y-95959411D01*
X243514349Y-96111299D01*
X243562431Y-96139059D01*
X243562455Y-96139072D01*
X243888075Y-96290910D01*
X243888078Y-96290911D01*
X243888080Y-96290912D01*
X244225716Y-96413801D01*
X244225717Y-96413801D01*
X244225722Y-96413803D01*
X244270456Y-96425789D01*
X244572779Y-96506795D01*
X244926625Y-96569186D01*
X245284563Y-96600501D01*
X245464216Y-96600500D01*
X249993605Y-96600500D01*
X249998474Y-96600596D01*
X250363160Y-96614926D01*
X250372831Y-96615687D01*
X250732874Y-96658303D01*
X250742448Y-96659819D01*
X251098047Y-96730554D01*
X251107478Y-96732818D01*
X251456412Y-96831230D01*
X251465641Y-96834228D01*
X251778579Y-96949678D01*
X251805780Y-96959713D01*
X251814775Y-96963439D01*
X252061675Y-97077262D01*
X252144004Y-97115216D01*
X252152656Y-97119624D01*
X252468992Y-97296781D01*
X252477257Y-97301846D01*
X252660855Y-97424523D01*
X252778702Y-97503266D01*
X252786564Y-97508978D01*
X253071274Y-97733424D01*
X253078667Y-97739739D01*
X253346871Y-97987663D01*
X253350381Y-97991038D01*
X254958630Y-99599287D01*
X254987990Y-99646013D01*
X255024209Y-99749519D01*
X255073614Y-99828147D01*
X255120184Y-99902262D01*
X255247738Y-100029816D01*
X255300206Y-100062784D01*
X255358217Y-100099235D01*
X255400478Y-100125789D01*
X255570745Y-100185368D01*
X255570750Y-100185369D01*
X255749996Y-100205565D01*
X255750000Y-100205565D01*
X255750004Y-100205565D01*
X255929249Y-100185369D01*
X255929252Y-100185368D01*
X255929255Y-100185368D01*
X256099522Y-100125789D01*
X256252262Y-100029816D01*
X256379816Y-99902262D01*
X256475789Y-99749522D01*
X256535368Y-99579255D01*
X256535369Y-99579249D01*
X256555565Y-99400003D01*
X256555565Y-99399996D01*
X256535369Y-99220750D01*
X256535368Y-99220745D01*
X256475789Y-99050478D01*
X256451615Y-99012006D01*
X256404319Y-98936735D01*
X256379816Y-98897738D01*
X256252262Y-98770184D01*
X256188077Y-98729854D01*
X256099519Y-98674209D01*
X255996013Y-98637990D01*
X255949287Y-98608630D01*
X254286097Y-96945439D01*
X254285916Y-96945275D01*
X254184006Y-96843366D01*
X254183998Y-96843358D01*
X254054908Y-96731501D01*
X253852437Y-96556058D01*
X253501207Y-96293130D01*
X253242944Y-96127156D01*
X253132131Y-96055941D01*
X252747071Y-95845681D01*
X252743408Y-95844008D01*
X252347998Y-95663430D01*
X252347995Y-95663429D01*
X252347991Y-95663427D01*
X251936927Y-95510107D01*
X251880132Y-95493430D01*
X251515970Y-95386500D01*
X251087278Y-95293242D01*
X250653012Y-95230802D01*
X250215404Y-95199500D01*
X250065030Y-95199500D01*
X250065029Y-95199500D01*
X247012722Y-95199500D01*
X246945683Y-95179815D01*
X246899928Y-95127011D01*
X246889984Y-95057853D01*
X246919009Y-94994297D01*
X246943827Y-94972399D01*
X247052692Y-94899658D01*
X247266337Y-94724320D01*
X247338394Y-94652262D01*
X249799288Y-92191366D01*
X249846012Y-92162008D01*
X249949522Y-92125789D01*
X250102262Y-92029816D01*
X250229816Y-91902262D01*
X250325789Y-91749522D01*
X250385368Y-91579255D01*
X250385369Y-91579249D01*
X250405565Y-91400003D01*
X250405565Y-91399996D01*
X250385369Y-91220750D01*
X250385368Y-91220745D01*
X250325788Y-91050476D01*
X250242059Y-90917223D01*
X250229816Y-90897738D01*
X250102262Y-90770184D01*
X249949523Y-90674211D01*
X249779254Y-90614631D01*
X249779249Y-90614630D01*
X249600004Y-90594435D01*
X249599996Y-90594435D01*
X249420750Y-90614630D01*
X249420745Y-90614631D01*
X249250476Y-90674211D01*
X249097737Y-90770184D01*
X248970184Y-90897737D01*
X248874212Y-91050475D01*
X248874211Y-91050476D01*
X248837992Y-91153984D01*
X248808632Y-91200709D01*
X246376248Y-93633093D01*
X246370327Y-93638639D01*
X246240639Y-93752375D01*
X246227770Y-93762250D01*
X246087724Y-93855827D01*
X246073677Y-93863937D01*
X245922608Y-93938437D01*
X245907623Y-93944644D01*
X245748130Y-93998786D01*
X245732463Y-94002984D01*
X245567271Y-94035844D01*
X245551189Y-94037962D01*
X245379196Y-94049235D01*
X245371086Y-94049500D01*
X244925494Y-94049500D01*
X244859523Y-94030494D01*
X244849525Y-94024212D01*
X244679254Y-93964631D01*
X244679249Y-93964630D01*
X244500004Y-93944435D01*
X244499996Y-93944435D01*
X244320750Y-93964630D01*
X244320745Y-93964631D01*
X244150476Y-94024211D01*
X243997737Y-94120184D01*
X243870184Y-94247737D01*
X243770506Y-94406374D01*
X243768800Y-94405302D01*
X243728579Y-94449835D01*
X243661149Y-94468137D01*
X243594529Y-94447077D01*
X243581074Y-94436623D01*
X243550564Y-94409358D01*
X243540730Y-94399525D01*
X243530020Y-94387540D01*
X243347177Y-94182939D01*
X243338518Y-94172079D01*
X243170475Y-93935245D01*
X243163088Y-93923490D01*
X243022607Y-93669309D01*
X243016578Y-93656787D01*
X242905452Y-93388503D01*
X242900859Y-93375378D01*
X242820469Y-93096335D01*
X242817375Y-93082779D01*
X242807332Y-93023670D01*
X242768732Y-92796482D01*
X242767178Y-92782686D01*
X242750695Y-92489152D01*
X242750500Y-92482200D01*
X242750500Y-91438948D01*
X242750494Y-91438830D01*
X242750494Y-91399996D01*
X242750495Y-91334563D01*
X242719180Y-90976626D01*
X242656789Y-90622780D01*
X242563795Y-90275718D01*
X242440906Y-89938082D01*
X242425575Y-89905205D01*
X242289066Y-89612458D01*
X242289054Y-89612434D01*
X242193390Y-89446739D01*
X242109406Y-89301274D01*
X242109398Y-89301263D01*
X242109394Y-89301256D01*
X241903317Y-89006947D01*
X241737879Y-88809786D01*
X241672361Y-88731705D01*
X241598454Y-88657798D01*
X241598434Y-88657776D01*
X241464669Y-88524011D01*
X241464485Y-88523843D01*
X241393488Y-88452846D01*
X241124575Y-88227198D01*
X240837028Y-88025852D01*
X240533019Y-87850330D01*
X240479310Y-87825285D01*
X240214870Y-87701973D01*
X239885002Y-87581909D01*
X239663033Y-87522432D01*
X239545927Y-87491053D01*
X239545920Y-87491052D01*
X239200223Y-87430095D01*
X238850522Y-87399500D01*
X238850519Y-87399500D01*
X238743993Y-87399500D01*
X237725494Y-87399500D01*
X237659523Y-87380494D01*
X237649525Y-87374212D01*
X237479254Y-87314631D01*
X237479249Y-87314630D01*
X237300004Y-87294435D01*
X237299996Y-87294435D01*
X237120750Y-87314630D01*
X237120745Y-87314631D01*
X237040983Y-87342542D01*
X237000028Y-87349500D01*
X224505360Y-87349500D01*
X224505223Y-87349460D01*
X224453958Y-87349460D01*
X224419022Y-87349460D01*
X224234593Y-87349461D01*
X223796981Y-87380763D01*
X223362713Y-87443204D01*
X222934014Y-87536466D01*
X222933999Y-87536470D01*
X222513050Y-87660077D01*
X222101998Y-87813395D01*
X221798615Y-87951949D01*
X221702913Y-87995656D01*
X221450604Y-88133431D01*
X221317848Y-88205923D01*
X220948777Y-88443114D01*
X220948761Y-88443125D01*
X220597561Y-88706036D01*
X220265999Y-88993342D01*
X220265985Y-88993355D01*
X220159667Y-89099675D01*
X220159666Y-89099674D01*
X220159664Y-89099678D01*
X216231858Y-93027482D01*
X216231761Y-93027588D01*
X216215659Y-93043690D01*
X216097142Y-93198140D01*
X216097139Y-93198144D01*
X215999805Y-93366730D01*
X215999803Y-93366734D01*
X215925298Y-93546600D01*
X215874910Y-93734647D01*
X215849501Y-93927649D01*
X215849235Y-93931709D01*
X215847458Y-93931592D01*
X215830494Y-93990478D01*
X215824209Y-94000479D01*
X215803550Y-94059521D01*
X215762828Y-94116297D01*
X215697876Y-94142044D01*
X215629314Y-94128588D01*
X215605979Y-94112858D01*
X215601427Y-94108970D01*
X215592788Y-94101592D01*
X215585645Y-94094988D01*
X214641367Y-93150710D01*
X214612006Y-93103983D01*
X214606989Y-93089646D01*
X214575789Y-93000478D01*
X214574067Y-92997738D01*
X214495601Y-92872860D01*
X214479816Y-92847738D01*
X214352262Y-92720184D01*
X214300962Y-92687950D01*
X214199523Y-92624211D01*
X214029254Y-92564631D01*
X214029249Y-92564630D01*
X213850004Y-92544435D01*
X213849996Y-92544435D01*
X213670750Y-92564630D01*
X213670745Y-92564631D01*
X213500476Y-92624211D01*
X213347737Y-92720184D01*
X213220184Y-92847737D01*
X213124211Y-93000476D01*
X213064631Y-93170745D01*
X213064630Y-93170750D01*
X213044435Y-93349996D01*
X213044435Y-93350003D01*
X213064630Y-93529249D01*
X213064631Y-93529254D01*
X213124211Y-93699523D01*
X213169764Y-93772019D01*
X213220184Y-93852262D01*
X213347738Y-93979816D01*
X213436906Y-94035844D01*
X213474587Y-94059521D01*
X213500478Y-94075789D01*
X213603984Y-94112007D01*
X213650710Y-94141367D01*
X214651580Y-95142238D01*
X214651875Y-95142505D01*
X214688261Y-95178892D01*
X214694037Y-95183498D01*
X214886505Y-95336991D01*
X215101205Y-95471900D01*
X215101210Y-95471902D01*
X215101211Y-95471903D01*
X215332794Y-95583433D01*
X215332303Y-95584450D01*
X215383053Y-95625339D01*
X215405124Y-95691631D01*
X215387851Y-95759332D01*
X215386197Y-95762040D01*
X215299210Y-95900478D01*
X215239629Y-96070753D01*
X215238799Y-96074391D01*
X215237618Y-96076500D01*
X215237333Y-96077317D01*
X215237189Y-96077266D01*
X215204683Y-96135366D01*
X215143018Y-96168217D01*
X215086436Y-96164461D01*
X215086044Y-96166181D01*
X215079253Y-96164631D01*
X214900004Y-96144435D01*
X214900000Y-96144435D01*
X214876233Y-96147112D01*
X214807412Y-96135055D01*
X214756034Y-96087704D01*
X214747797Y-96071352D01*
X214714780Y-95991638D01*
X214594501Y-95783304D01*
X214448057Y-95592452D01*
X214448053Y-95592448D01*
X214448050Y-95592444D01*
X214414916Y-95559310D01*
X214414888Y-95559280D01*
X214369304Y-95513697D01*
X214369297Y-95513685D01*
X214327805Y-95472194D01*
X214327806Y-95472194D01*
X214237184Y-95381573D01*
X214237179Y-95381569D01*
X214237177Y-95381567D01*
X214033835Y-95225537D01*
X213811855Y-95097379D01*
X213811845Y-95097374D01*
X213575066Y-94999298D01*
X213575053Y-94999294D01*
X213575054Y-94999294D01*
X213575051Y-94999293D01*
X213418089Y-94957235D01*
X213327469Y-94932954D01*
X213073346Y-94899500D01*
X213073344Y-94899500D01*
X213014184Y-94899500D01*
X205106527Y-94899500D01*
X205101332Y-94899500D01*
X205101190Y-94899506D01*
X205082072Y-94899506D01*
X204999700Y-94910348D01*
X204896730Y-94923902D01*
X204716178Y-94972277D01*
X204716168Y-94972280D01*
X204716168Y-94972281D01*
X204650951Y-94999294D01*
X204543462Y-95043816D01*
X204381570Y-95137282D01*
X204245038Y-95242045D01*
X204210508Y-95260709D01*
X204100479Y-95299210D01*
X204100475Y-95299212D01*
X203947737Y-95395184D01*
X203820184Y-95522737D01*
X203724211Y-95675476D01*
X203664631Y-95845745D01*
X203664630Y-95845750D01*
X203644435Y-96024996D01*
X203644435Y-96025003D01*
X203664630Y-96204249D01*
X203664631Y-96204254D01*
X203724211Y-96374523D01*
X203756424Y-96425789D01*
X203820184Y-96527262D01*
X203947738Y-96654816D01*
X204100478Y-96750789D01*
X204247728Y-96802314D01*
X204270745Y-96810368D01*
X204270750Y-96810369D01*
X204449996Y-96830565D01*
X204450000Y-96830565D01*
X204450004Y-96830565D01*
X204629249Y-96810369D01*
X204629252Y-96810368D01*
X204629255Y-96810368D01*
X204799522Y-96750789D01*
X204952262Y-96654816D01*
X205079816Y-96527262D01*
X205175789Y-96374522D01*
X205175791Y-96374514D01*
X205177631Y-96370698D01*
X205179476Y-96368654D01*
X205179494Y-96368626D01*
X205179498Y-96368629D01*
X205224454Y-96318838D01*
X205289351Y-96300500D01*
X207278044Y-96300500D01*
X207345083Y-96320185D01*
X207390838Y-96372989D01*
X207401264Y-96410616D01*
X207414630Y-96529250D01*
X207414631Y-96529254D01*
X207474211Y-96699523D01*
X207557677Y-96832357D01*
X207570184Y-96852262D01*
X207697738Y-96979816D01*
X207760904Y-97019506D01*
X207846021Y-97072989D01*
X207850478Y-97075789D01*
X207975786Y-97119636D01*
X208020745Y-97135368D01*
X208020750Y-97135369D01*
X208199996Y-97155565D01*
X208200000Y-97155565D01*
X208200004Y-97155565D01*
X208379249Y-97135369D01*
X208379251Y-97135368D01*
X208379255Y-97135368D01*
X208379258Y-97135366D01*
X208379262Y-97135366D01*
X208469377Y-97103832D01*
X208549522Y-97075789D01*
X208639096Y-97019505D01*
X208705068Y-97000500D01*
X210100228Y-97000500D01*
X210167267Y-97020185D01*
X210213022Y-97072989D01*
X210223448Y-97110617D01*
X210239630Y-97254249D01*
X210239631Y-97254254D01*
X210299211Y-97424523D01*
X210352285Y-97508989D01*
X210395184Y-97577262D01*
X210522738Y-97704816D01*
X210568255Y-97733416D01*
X210675474Y-97800787D01*
X210675478Y-97800789D01*
X210845745Y-97860368D01*
X210845750Y-97860369D01*
X211024996Y-97880565D01*
X211025000Y-97880565D01*
X211025004Y-97880565D01*
X211204249Y-97860369D01*
X211204252Y-97860368D01*
X211204255Y-97860368D01*
X211374522Y-97800789D01*
X211375488Y-97800181D01*
X211384523Y-97794506D01*
X211450494Y-97775500D01*
X212245854Y-97775500D01*
X212253964Y-97775766D01*
X212284828Y-97777789D01*
X212434467Y-97787597D01*
X212450538Y-97789713D01*
X212623978Y-97824212D01*
X212639633Y-97828407D01*
X212807084Y-97885249D01*
X212822056Y-97891450D01*
X212980658Y-97969664D01*
X212994693Y-97977767D01*
X213141728Y-98076010D01*
X213154596Y-98085884D01*
X213290153Y-98204762D01*
X213296074Y-98210308D01*
X213393571Y-98307801D01*
X213393588Y-98307817D01*
X213582627Y-98462949D01*
X213612097Y-98487133D01*
X213847142Y-98644178D01*
X213958395Y-98703641D01*
X214008239Y-98752602D01*
X214023701Y-98820739D01*
X213999871Y-98886419D01*
X213944315Y-98928789D01*
X213899943Y-98937000D01*
X175530718Y-98937000D01*
X175525309Y-98936882D01*
X175201050Y-98922725D01*
X175138817Y-98920007D01*
X175128043Y-98919065D01*
X174812650Y-98877544D01*
X174747188Y-98868926D01*
X174736538Y-98867048D01*
X174361486Y-98783901D01*
X174351039Y-98781102D01*
X173984674Y-98665589D01*
X173974508Y-98661889D01*
X173619599Y-98514881D01*
X173609795Y-98510309D01*
X173454079Y-98429249D01*
X173269045Y-98332926D01*
X173259689Y-98327525D01*
X173092087Y-98220750D01*
X172935705Y-98121123D01*
X172926844Y-98114919D01*
X172622072Y-97881060D01*
X172613785Y-97874106D01*
X172328676Y-97612852D01*
X172324768Y-97609111D01*
X171259964Y-96544307D01*
X171226479Y-96482984D01*
X171224425Y-96470508D01*
X171210369Y-96345750D01*
X171210368Y-96345745D01*
X171164639Y-96215060D01*
X171150789Y-96175478D01*
X171144947Y-96166181D01*
X171072122Y-96050281D01*
X171054816Y-96022738D01*
X170927262Y-95895184D01*
X170861752Y-95854021D01*
X170774523Y-95799211D01*
X170604254Y-95739631D01*
X170604249Y-95739630D01*
X170425004Y-95719435D01*
X170424996Y-95719435D01*
X170245750Y-95739630D01*
X170245745Y-95739631D01*
X170075476Y-95799211D01*
X169922737Y-95895184D01*
X169795184Y-96022737D01*
X169699212Y-96175475D01*
X169699211Y-96175476D01*
X169656491Y-96297561D01*
X169654012Y-96304055D01*
X169626420Y-96370670D01*
X169626418Y-96370678D01*
X169599500Y-96506003D01*
X169599500Y-96506006D01*
X169599500Y-96643994D01*
X169599500Y-96643996D01*
X169599499Y-96643996D01*
X165099737Y-96643996D01*
X168379184Y-89193947D01*
X168423079Y-89044509D01*
X168427161Y-88886495D01*
X168427160Y-88886494D01*
X168427161Y-88886492D01*
X168398103Y-88765650D01*
X168390206Y-88732808D01*
X168360826Y-88678743D01*
X168314739Y-88593932D01*
X168314738Y-88593930D01*
X168314734Y-88593923D01*
X166569734Y-86193923D01*
X166548022Y-86169480D01*
X166491341Y-86105670D01*
X166491339Y-86105669D01*
X166491337Y-86105666D01*
X166362319Y-86014345D01*
X166362318Y-86014344D01*
X166362312Y-86014341D01*
X166214067Y-85959528D01*
X166214061Y-85959527D01*
X166056668Y-85944950D01*
X166056666Y-85944950D01*
X166056664Y-85944950D01*
X165900867Y-85971603D01*
X165900861Y-85971605D01*
X165757270Y-86037675D01*
X165757266Y-86037678D01*
X165635669Y-86138659D01*
X165635664Y-86138666D01*
X165544348Y-86267676D01*
X165544337Y-86267693D01*
X161923888Y-93136922D01*
X161880166Y-93184099D01*
X161822736Y-93220185D01*
X161695184Y-93347737D01*
X161599211Y-93500476D01*
X161539631Y-93670745D01*
X161539630Y-93670750D01*
X161519435Y-93849995D01*
X161519435Y-93849997D01*
X161519435Y-93850000D01*
X161520203Y-93856813D01*
X161508147Y-93925635D01*
X161506678Y-93928511D01*
X160382652Y-96061171D01*
X160333981Y-96111299D01*
X160265934Y-96127156D01*
X160200117Y-96103707D01*
X160162464Y-96059635D01*
X158893503Y-93568282D01*
X158881998Y-93506966D01*
X158880565Y-93506966D01*
X158880565Y-93499997D01*
X158860369Y-93320750D01*
X158860368Y-93320745D01*
X158800789Y-93150478D01*
X158704816Y-92997738D01*
X158577262Y-92870184D01*
X158577260Y-92870182D01*
X158548401Y-92852049D01*
X158503881Y-92803335D01*
X158500397Y-92796495D01*
X155764544Y-87425186D01*
X155761944Y-87420141D01*
X155687986Y-87314631D01*
X155671219Y-87290710D01*
X155671218Y-87290709D01*
X155671216Y-87290706D01*
X155550078Y-87189163D01*
X155550076Y-87189162D01*
X155406788Y-87122433D01*
X155406788Y-87122432D01*
X155251107Y-87095063D01*
X155093649Y-87108919D01*
X154945141Y-87163056D01*
X154945137Y-87163058D01*
X154815710Y-87253780D01*
X154815706Y-87253784D01*
X154714160Y-87374925D01*
X153942669Y-88587268D01*
X153890070Y-88633258D01*
X153820957Y-88643510D01*
X153757272Y-88614770D01*
X153733441Y-88587268D01*
X153647900Y-88452846D01*
X152038635Y-85924001D01*
X152035566Y-85919228D01*
X152035563Y-85919225D01*
X152035561Y-85919221D01*
X151932892Y-85799047D01*
X151848860Y-85741311D01*
X151827596Y-85726700D01*
X151783490Y-85672514D01*
X151775681Y-85603082D01*
X151806649Y-85540450D01*
X151866562Y-85504504D01*
X151897817Y-85500500D01*
X262572183Y-85500500D01*
X262639222Y-85520185D01*
X262684977Y-85572989D01*
X262694921Y-85642147D01*
X262665896Y-85705703D01*
X262652112Y-85719301D01*
X262548858Y-85806356D01*
X262548856Y-85806358D01*
X262397934Y-85985361D01*
X262397929Y-85985368D01*
X262279425Y-86187310D01*
X262238857Y-86294810D01*
X262196755Y-86406374D01*
X262196754Y-86406376D01*
X262196754Y-86406378D01*
X262152295Y-86636255D01*
X262152295Y-86636256D01*
X262149501Y-86688847D01*
X262149500Y-86688886D01*
X262149500Y-88626113D01*
X262149501Y-88626152D01*
X262152295Y-88678743D01*
X262152295Y-88678744D01*
X262192256Y-88885366D01*
X262196755Y-88908626D01*
X262245326Y-89037332D01*
X262279425Y-89127689D01*
X262397929Y-89329631D01*
X262397934Y-89329638D01*
X262548856Y-89508641D01*
X262548858Y-89508643D01*
X262727861Y-89659565D01*
X262727868Y-89659570D01*
X262929810Y-89778074D01*
X263148874Y-89860745D01*
X263151517Y-89861256D01*
X263152537Y-89861782D01*
X263153950Y-89862183D01*
X263153868Y-89862470D01*
X263213598Y-89893314D01*
X263248493Y-89953846D01*
X263245122Y-90023634D01*
X263204556Y-90080521D01*
X263139674Y-90106446D01*
X263127969Y-90107000D01*
X259602129Y-90107000D01*
X259602123Y-90107001D01*
X259542516Y-90113408D01*
X259407671Y-90163702D01*
X259407664Y-90163706D01*
X259292455Y-90249952D01*
X259292452Y-90249955D01*
X259206206Y-90365164D01*
X259206202Y-90365171D01*
X259155908Y-90500017D01*
X259149501Y-90559616D01*
X259149501Y-90559623D01*
X259149500Y-90559635D01*
X259149500Y-94155370D01*
X259149501Y-94155376D01*
X259155908Y-94214983D01*
X259206202Y-94349828D01*
X259206206Y-94349835D01*
X259292452Y-94465044D01*
X259292455Y-94465047D01*
X259407664Y-94551293D01*
X259407671Y-94551297D01*
X259542517Y-94601591D01*
X259542516Y-94601591D01*
X259549444Y-94602335D01*
X259602127Y-94608000D01*
X263197872Y-94607999D01*
X263257483Y-94601591D01*
X263392331Y-94551296D01*
X263507546Y-94465046D01*
X263593796Y-94349831D01*
X263644091Y-94214983D01*
X263650500Y-94155373D01*
X263650499Y-91293303D01*
X265400000Y-91293303D01*
X265400000Y-92107500D01*
X266900000Y-92107500D01*
X266900000Y-92607500D01*
X265400001Y-92607500D01*
X265400001Y-93421697D01*
X265410400Y-93553832D01*
X265465377Y-93772019D01*
X265558428Y-93976874D01*
X265558431Y-93976880D01*
X265686559Y-94161823D01*
X265686569Y-94161835D01*
X265845664Y-94320930D01*
X265845676Y-94320940D01*
X266030619Y-94449068D01*
X266030625Y-94449071D01*
X266235480Y-94542122D01*
X266453667Y-94597099D01*
X266585810Y-94607499D01*
X267149999Y-94607499D01*
X267150000Y-94607498D01*
X267150000Y-93790512D01*
X267207007Y-93823425D01*
X267334174Y-93857500D01*
X267465826Y-93857500D01*
X267592993Y-93823425D01*
X267650000Y-93790512D01*
X267650000Y-94607499D01*
X268214182Y-94607499D01*
X268214197Y-94607498D01*
X268346332Y-94597099D01*
X268564519Y-94542122D01*
X268769374Y-94449071D01*
X268769380Y-94449068D01*
X268954323Y-94320940D01*
X268954335Y-94320930D01*
X269113430Y-94161835D01*
X269113440Y-94161823D01*
X269241568Y-93976880D01*
X269241571Y-93976874D01*
X269334622Y-93772019D01*
X269389599Y-93553832D01*
X269399999Y-93421696D01*
X269400000Y-93421684D01*
X269400000Y-92607500D01*
X267900000Y-92607500D01*
X267900000Y-92107500D01*
X269399999Y-92107500D01*
X269399999Y-91293317D01*
X269399998Y-91293302D01*
X269389599Y-91161167D01*
X269334622Y-90942980D01*
X269241571Y-90738125D01*
X269241568Y-90738119D01*
X269113440Y-90553176D01*
X269113430Y-90553164D01*
X268954335Y-90394069D01*
X268954323Y-90394059D01*
X268769380Y-90265931D01*
X268769374Y-90265928D01*
X268564519Y-90172877D01*
X268346332Y-90117900D01*
X268214196Y-90107500D01*
X267650000Y-90107500D01*
X267650000Y-90924488D01*
X267592993Y-90891575D01*
X267465826Y-90857500D01*
X267334174Y-90857500D01*
X267207007Y-90891575D01*
X267150000Y-90924488D01*
X267150000Y-90107500D01*
X266585817Y-90107500D01*
X266585802Y-90107501D01*
X266453667Y-90117900D01*
X266235480Y-90172877D01*
X266030625Y-90265928D01*
X266030619Y-90265931D01*
X265845676Y-90394059D01*
X265845664Y-90394069D01*
X265686569Y-90553164D01*
X265686559Y-90553176D01*
X265558431Y-90738119D01*
X265558428Y-90738125D01*
X265465377Y-90942980D01*
X265410400Y-91161167D01*
X265400000Y-91293303D01*
X263650499Y-91293303D01*
X263650499Y-90559628D01*
X263644091Y-90500017D01*
X263604571Y-90394059D01*
X263593797Y-90365171D01*
X263593793Y-90365164D01*
X263507547Y-90249955D01*
X263507544Y-90249952D01*
X263392335Y-90163706D01*
X263392328Y-90163702D01*
X263345061Y-90146073D01*
X263289127Y-90104202D01*
X263264710Y-90038738D01*
X263279562Y-89970465D01*
X263328967Y-89921059D01*
X263394972Y-89906066D01*
X263408053Y-89906761D01*
X263431349Y-89907999D01*
X263431369Y-89907999D01*
X263431378Y-89908000D01*
X263431386Y-89908000D01*
X265368614Y-89908000D01*
X265368622Y-89908000D01*
X265421241Y-89905205D01*
X265651126Y-89860745D01*
X265870190Y-89778074D01*
X266072132Y-89659570D01*
X266178108Y-89570219D01*
X266251141Y-89508643D01*
X266251143Y-89508641D01*
X266402065Y-89329638D01*
X266402065Y-89329637D01*
X266402070Y-89329632D01*
X266520574Y-89127690D01*
X266603245Y-88908626D01*
X266647705Y-88678741D01*
X266650500Y-88626122D01*
X266650500Y-86688878D01*
X266647705Y-86636259D01*
X266603245Y-86406374D01*
X266520574Y-86187310D01*
X266402070Y-85985368D01*
X266402065Y-85985361D01*
X266251143Y-85806358D01*
X266251141Y-85806356D01*
X266147888Y-85719301D01*
X266109323Y-85661039D01*
X266108379Y-85591176D01*
X266145356Y-85531893D01*
X266208513Y-85502012D01*
X266227817Y-85500500D01*
X269875500Y-85500500D01*
X269942539Y-85520185D01*
X269988294Y-85572989D01*
X269999500Y-85624500D01*
X269999500Y-102375500D01*
X269979815Y-102442539D01*
X269927011Y-102488294D01*
X269875500Y-102499500D01*
X111274500Y-102499500D01*
X111207461Y-102479815D01*
X111161706Y-102427011D01*
X111150500Y-102375500D01*
X111150500Y-85624500D01*
X111170185Y-85557461D01*
X111222989Y-85511706D01*
X111274500Y-85500500D01*
X151154812Y-85500500D01*
X151221851Y-85520185D01*
G37*
%TD.AperFunction*%
%TD*%
%TA.AperFunction,Conductor*%
%TO.N,GND*%
G36*
X151221851Y-85520185D02*
G01*
X151267606Y-85572989D01*
X151277550Y-85642147D01*
X151248525Y-85705703D01*
X151208212Y-85736413D01*
X151197946Y-85741311D01*
X151077766Y-85843984D01*
X151033010Y-85909125D01*
X150988254Y-85974265D01*
X148545472Y-90770184D01*
X145890512Y-95982673D01*
X145842545Y-96033476D01*
X145774726Y-96050281D01*
X145708588Y-96027753D01*
X145669526Y-95982673D01*
X143520980Y-91764428D01*
X141514544Y-87825186D01*
X141511944Y-87820141D01*
X141507217Y-87813398D01*
X141421219Y-87690710D01*
X141421218Y-87690709D01*
X141421216Y-87690706D01*
X141300078Y-87589163D01*
X141300076Y-87589162D01*
X141156788Y-87522433D01*
X141156788Y-87522432D01*
X141001107Y-87495063D01*
X140843649Y-87508919D01*
X140695141Y-87563056D01*
X140695137Y-87563058D01*
X140565710Y-87653780D01*
X140565706Y-87653784D01*
X140464160Y-87774925D01*
X140134109Y-88293577D01*
X140081510Y-88339567D01*
X140012397Y-88349819D01*
X139948712Y-88321079D01*
X139944676Y-88317457D01*
X139943285Y-88316153D01*
X139943285Y-88316152D01*
X139827981Y-88208030D01*
X139688623Y-88133435D01*
X139688616Y-88133432D01*
X139688613Y-88133431D01*
X136638633Y-86983438D01*
X136638611Y-86983431D01*
X136525093Y-86952830D01*
X136367126Y-86947271D01*
X136367123Y-86947272D01*
X136213103Y-86982787D01*
X136213100Y-86982788D01*
X136073512Y-87056961D01*
X135957884Y-87164731D01*
X135957879Y-87164736D01*
X135874090Y-87298747D01*
X132001198Y-95791109D01*
X131955471Y-95843937D01*
X131888442Y-95863657D01*
X131821392Y-95844008D01*
X131775609Y-95791228D01*
X131775255Y-95790446D01*
X131765821Y-95769435D01*
X130683211Y-93358165D01*
X127627381Y-86551997D01*
X127580187Y-86466209D01*
X127476584Y-86346832D01*
X127476583Y-86346831D01*
X127345616Y-86258338D01*
X127196207Y-86206755D01*
X127196201Y-86206754D01*
X127038528Y-86195599D01*
X127038527Y-86195599D01*
X127038526Y-86195599D01*
X126883341Y-86225633D01*
X126741216Y-86294809D01*
X126741214Y-86294810D01*
X125069251Y-87399500D01*
X124117856Y-88028100D01*
X124051071Y-88048632D01*
X123983788Y-88029799D01*
X123937367Y-87977579D01*
X123925500Y-87924642D01*
X123925500Y-86570945D01*
X123925500Y-86570943D01*
X123884577Y-86418216D01*
X123843364Y-86346832D01*
X123805524Y-86281290D01*
X123805518Y-86281282D01*
X123693717Y-86169481D01*
X123693709Y-86169475D01*
X123556790Y-86090426D01*
X123556786Y-86090424D01*
X123556784Y-86090423D01*
X123404057Y-86049500D01*
X118804057Y-86049500D01*
X118645943Y-86049500D01*
X118493216Y-86090423D01*
X118493209Y-86090426D01*
X118356290Y-86169475D01*
X118356282Y-86169481D01*
X118244481Y-86281282D01*
X118244475Y-86281290D01*
X118165426Y-86418209D01*
X118165423Y-86418216D01*
X118124500Y-86570943D01*
X118124500Y-101279057D01*
X118165003Y-101430214D01*
X118165423Y-101431783D01*
X118165426Y-101431790D01*
X118244475Y-101568709D01*
X118244479Y-101568714D01*
X118244480Y-101568716D01*
X118356284Y-101680520D01*
X118356286Y-101680521D01*
X118356290Y-101680524D01*
X118453188Y-101736467D01*
X118493216Y-101759577D01*
X118645943Y-101800500D01*
X118645945Y-101800500D01*
X123404055Y-101800500D01*
X123404057Y-101800500D01*
X123556784Y-101759577D01*
X123693716Y-101680520D01*
X123805520Y-101568716D01*
X123884577Y-101431784D01*
X123925500Y-101279057D01*
X123925500Y-89948410D01*
X123945185Y-89881371D01*
X123997989Y-89835616D01*
X124067147Y-89825672D01*
X124130703Y-89854697D01*
X124162990Y-89898451D01*
X128313118Y-99326460D01*
X128320816Y-99343946D01*
X128344788Y-99392414D01*
X128344790Y-99392418D01*
X128416306Y-99489500D01*
X128438536Y-99519677D01*
X128562028Y-99618342D01*
X128706849Y-99681683D01*
X128863130Y-99705384D01*
X129020219Y-99687828D01*
X129127047Y-99646013D01*
X129167410Y-99630214D01*
X129167410Y-99630213D01*
X129167412Y-99630213D01*
X129294677Y-99536464D01*
X131763056Y-97163021D01*
X131825021Y-97130746D01*
X131894602Y-97137096D01*
X131934944Y-97163023D01*
X134455320Y-99586462D01*
X134495927Y-99622159D01*
X134495932Y-99622163D01*
X134631050Y-99704182D01*
X134631051Y-99704182D01*
X134631053Y-99704184D01*
X134782799Y-99748439D01*
X134827950Y-99749431D01*
X134940823Y-99751911D01*
X134940823Y-99751910D01*
X134940828Y-99751911D01*
X135094371Y-99714364D01*
X135232964Y-99638356D01*
X135347163Y-99529068D01*
X135429184Y-99393947D01*
X138763303Y-91819694D01*
X138808328Y-91766269D01*
X138875091Y-91745666D01*
X138942395Y-91764428D01*
X138988870Y-91816599D01*
X138990273Y-91819670D01*
X143270816Y-101543947D01*
X143294787Y-101592412D01*
X143294788Y-101592414D01*
X143294790Y-101592418D01*
X143359691Y-101680520D01*
X143388536Y-101719677D01*
X143512028Y-101818342D01*
X143656849Y-101881683D01*
X143813130Y-101905384D01*
X143970219Y-101887828D01*
X144023077Y-101867138D01*
X144117410Y-101830214D01*
X144117410Y-101830213D01*
X144117412Y-101830213D01*
X144244677Y-101736464D01*
X145950067Y-100096666D01*
X146844668Y-99236473D01*
X146844671Y-99236470D01*
X146844671Y-99236468D01*
X146844677Y-99236464D01*
X146930031Y-99133164D01*
X146932765Y-99129855D01*
X146932765Y-99129854D01*
X146932768Y-99129851D01*
X147000838Y-98987192D01*
X147007754Y-98949903D01*
X147039334Y-98887581D01*
X147099596Y-98852223D01*
X147169408Y-98855059D01*
X147215616Y-98883134D01*
X148006853Y-99643939D01*
X148258129Y-99885551D01*
X148298725Y-99921238D01*
X148298730Y-99921242D01*
X148433848Y-100003261D01*
X148433849Y-100003261D01*
X148433851Y-100003263D01*
X148585597Y-100047518D01*
X148630748Y-100048510D01*
X148743621Y-100050990D01*
X148743621Y-100050989D01*
X148743626Y-100050990D01*
X148897169Y-100013443D01*
X149035762Y-99937435D01*
X149149961Y-99828147D01*
X149231982Y-99693026D01*
X151124312Y-95394143D01*
X151132794Y-95378159D01*
X151150789Y-95349522D01*
X151175688Y-95278360D01*
X151179219Y-95269409D01*
X152943566Y-91261272D01*
X152988591Y-91207846D01*
X153055354Y-91187243D01*
X153122658Y-91206005D01*
X153169133Y-91258176D01*
X153170536Y-91261248D01*
X157513701Y-101127784D01*
X157520816Y-101143946D01*
X157544788Y-101192414D01*
X157544790Y-101192418D01*
X157626458Y-101303282D01*
X157638536Y-101319677D01*
X157762028Y-101418342D01*
X157906849Y-101481683D01*
X158063130Y-101505384D01*
X158220219Y-101487828D01*
X158244493Y-101478326D01*
X158367410Y-101430214D01*
X158367410Y-101430213D01*
X158367412Y-101430213D01*
X158494677Y-101336464D01*
X159784067Y-100096666D01*
X161094668Y-98836473D01*
X161094671Y-98836470D01*
X161094671Y-98836468D01*
X161094677Y-98836464D01*
X161163970Y-98752602D01*
X161182765Y-98729855D01*
X161182765Y-98729854D01*
X161182768Y-98729851D01*
X161250838Y-98587192D01*
X161250838Y-98587190D01*
X161254338Y-98579856D01*
X161255823Y-98580564D01*
X161289871Y-98530784D01*
X161354232Y-98503593D01*
X161423077Y-98515514D01*
X161454299Y-98537403D01*
X162805320Y-99836462D01*
X162845927Y-99872159D01*
X162845932Y-99872163D01*
X162981050Y-99954182D01*
X162981051Y-99954182D01*
X162981053Y-99954184D01*
X163132799Y-99998439D01*
X163177950Y-99999431D01*
X163290823Y-100001911D01*
X163290823Y-100001910D01*
X163290828Y-100001911D01*
X163444371Y-99964364D01*
X163582964Y-99888356D01*
X163697163Y-99779068D01*
X163779184Y-99643947D01*
X165099737Y-96643996D01*
X169599499Y-96643996D01*
X169626418Y-96779322D01*
X169626421Y-96779332D01*
X169679222Y-96906807D01*
X169755887Y-97021545D01*
X169755888Y-97021546D01*
X171302407Y-98568064D01*
X171302419Y-98568086D01*
X171485616Y-98751282D01*
X171485628Y-98751293D01*
X171485639Y-98751304D01*
X171578509Y-98831776D01*
X171805687Y-99028628D01*
X172144684Y-99282397D01*
X172144689Y-99282400D01*
X172500940Y-99511348D01*
X172638501Y-99586462D01*
X172869981Y-99712860D01*
X172872615Y-99714298D01*
X173257822Y-99890215D01*
X173654597Y-100038204D01*
X173654604Y-100038206D01*
X173654612Y-100038209D01*
X174060916Y-100157509D01*
X174060926Y-100157512D01*
X174474710Y-100247524D01*
X174474717Y-100247525D01*
X174893882Y-100307791D01*
X175316278Y-100338001D01*
X175528016Y-100338000D01*
X219031386Y-100338000D01*
X219100382Y-100338000D01*
X219106456Y-100338000D01*
X219106556Y-100337995D01*
X219182159Y-100337995D01*
X219182162Y-100337995D01*
X219482261Y-100308439D01*
X219778019Y-100249611D01*
X220066586Y-100162076D01*
X220345184Y-100046677D01*
X220611129Y-99904527D01*
X220861860Y-99736994D01*
X221094963Y-99545692D01*
X221143885Y-99496768D01*
X221143895Y-99496761D01*
X221152791Y-99487864D01*
X221152793Y-99487864D01*
X221599292Y-99041363D01*
X221646013Y-99012007D01*
X221749522Y-98975789D01*
X221902262Y-98879816D01*
X222029816Y-98752262D01*
X222125789Y-98599522D01*
X222185368Y-98429255D01*
X222193102Y-98360617D01*
X222220168Y-98296203D01*
X222277763Y-98256648D01*
X222316322Y-98250500D01*
X223797672Y-98250500D01*
X223864711Y-98270185D01*
X223910466Y-98322989D01*
X223920410Y-98392147D01*
X223891385Y-98455703D01*
X223845125Y-98489061D01*
X223726089Y-98538367D01*
X223726079Y-98538372D01*
X223562219Y-98647860D01*
X223562215Y-98647863D01*
X223422863Y-98787215D01*
X223422860Y-98787219D01*
X223313372Y-98951079D01*
X223313367Y-98951089D01*
X223237949Y-99133163D01*
X223237947Y-99133171D01*
X223199500Y-99326455D01*
X223199500Y-99523544D01*
X223237947Y-99716828D01*
X223237949Y-99716836D01*
X223313367Y-99898910D01*
X223313372Y-99898920D01*
X223422860Y-100062780D01*
X223422863Y-100062784D01*
X224264484Y-100904404D01*
X224293720Y-100933640D01*
X224293721Y-100933642D01*
X224330039Y-100969960D01*
X224330039Y-100969961D01*
X224449205Y-101089128D01*
X224495269Y-101127780D01*
X224707402Y-101305781D01*
X224983485Y-101499096D01*
X224983492Y-101499100D01*
X224983503Y-101499108D01*
X225257066Y-101657050D01*
X225275393Y-101667631D01*
X225275417Y-101667644D01*
X225580861Y-101810074D01*
X225580866Y-101810075D01*
X225580875Y-101810080D01*
X225897602Y-101925360D01*
X225897608Y-101925361D01*
X225897612Y-101925363D01*
X225986274Y-101949119D01*
X226223172Y-102012595D01*
X226555105Y-102071124D01*
X226890875Y-102100499D01*
X226890876Y-102100500D01*
X226890877Y-102100500D01*
X226960862Y-102100500D01*
X230451256Y-102100500D01*
X230451317Y-102100500D01*
X230516149Y-102100574D01*
X230516156Y-102100572D01*
X230519900Y-102100577D01*
X230521905Y-102100500D01*
X230534397Y-102100500D01*
X230534398Y-102100500D01*
X230599324Y-102087584D01*
X230604140Y-102086727D01*
X230677274Y-102075220D01*
X230695458Y-102069326D01*
X230709481Y-102065673D01*
X230727692Y-102062051D01*
X230740547Y-102056725D01*
X230740565Y-102056721D01*
X230751835Y-102052051D01*
X230751836Y-102052051D01*
X230758325Y-102049362D01*
X230767535Y-102045966D01*
X230832437Y-102024935D01*
X230894362Y-101993420D01*
X230903134Y-101989380D01*
X230909771Y-101986632D01*
X230909771Y-101986631D01*
X230921041Y-101981964D01*
X230921053Y-101981957D01*
X230933914Y-101976631D01*
X230948771Y-101966702D01*
X230961402Y-101959304D01*
X230977804Y-101950959D01*
X231038901Y-101906592D01*
X231042839Y-101903849D01*
X231097781Y-101867139D01*
X231247139Y-101717781D01*
X231837139Y-101127781D01*
X231946631Y-100963914D01*
X232022051Y-100781836D01*
X232060500Y-100588540D01*
X232060500Y-100391460D01*
X232060500Y-100391457D01*
X232060499Y-100391455D01*
X232043857Y-100307790D01*
X232022051Y-100198164D01*
X231946631Y-100016086D01*
X231946629Y-100016083D01*
X231946627Y-100016079D01*
X231837139Y-99852219D01*
X231837136Y-99852215D01*
X231697784Y-99712863D01*
X231697780Y-99712860D01*
X231533920Y-99603372D01*
X231533910Y-99603367D01*
X231351836Y-99527949D01*
X231351828Y-99527947D01*
X231158543Y-99489500D01*
X231158540Y-99489500D01*
X230961460Y-99489500D01*
X230961457Y-99489500D01*
X230768171Y-99527947D01*
X230768163Y-99527949D01*
X230586089Y-99603367D01*
X230586079Y-99603372D01*
X230422219Y-99712860D01*
X230422215Y-99712863D01*
X230071899Y-100063181D01*
X230010576Y-100096666D01*
X229984218Y-100099500D01*
X227063469Y-100099500D01*
X227055359Y-100099235D01*
X226824869Y-100084128D01*
X226808788Y-100082010D01*
X226586253Y-100037745D01*
X226570585Y-100033547D01*
X226481371Y-100003263D01*
X226355729Y-99960613D01*
X226340744Y-99954406D01*
X226137240Y-99854049D01*
X226123194Y-99845939D01*
X225934532Y-99719880D01*
X225921663Y-99710006D01*
X225916391Y-99705383D01*
X225748023Y-99557728D01*
X225742101Y-99552181D01*
X224837784Y-98647863D01*
X224837780Y-98647860D01*
X224673920Y-98538372D01*
X224673910Y-98538367D01*
X224554875Y-98489061D01*
X224500472Y-98445220D01*
X224478407Y-98378926D01*
X224495686Y-98311226D01*
X224546824Y-98263616D01*
X224602328Y-98250500D01*
X239735568Y-98250500D01*
X239735807Y-98250488D01*
X239793370Y-98250489D01*
X240057324Y-98220753D01*
X240057334Y-98220750D01*
X240057340Y-98220750D01*
X240270183Y-98172171D01*
X240316290Y-98161649D01*
X240567009Y-98073921D01*
X240806329Y-97958673D01*
X241031241Y-97817353D01*
X241238915Y-97651740D01*
X241278661Y-97611993D01*
X241278671Y-97611985D01*
X241284040Y-97606615D01*
X241284043Y-97606614D01*
X241524292Y-97366363D01*
X241571013Y-97337007D01*
X241674522Y-97300789D01*
X241827262Y-97204816D01*
X241954816Y-97077262D01*
X242050789Y-96924522D01*
X242110368Y-96754255D01*
X242121115Y-96658874D01*
X242130565Y-96575003D01*
X242130565Y-96574996D01*
X242110369Y-96395750D01*
X242110368Y-96395745D01*
X242073685Y-96290912D01*
X242050789Y-96225478D01*
X242036201Y-96202262D01*
X241982628Y-96117001D01*
X241954816Y-96072738D01*
X241827262Y-95945184D01*
X241722337Y-95879255D01*
X241674523Y-95849211D01*
X241504254Y-95789631D01*
X241504249Y-95789630D01*
X241325004Y-95769435D01*
X241324996Y-95769435D01*
X241145750Y-95789630D01*
X241145745Y-95789631D01*
X240975475Y-95849211D01*
X240965641Y-95855391D01*
X240898404Y-95874390D01*
X240831569Y-95854021D01*
X240786356Y-95800752D01*
X240776451Y-95736511D01*
X240780565Y-95700001D01*
X240780565Y-95699998D01*
X240777362Y-95671574D01*
X240789416Y-95602752D01*
X240836764Y-95551372D01*
X240872994Y-95536797D01*
X240879251Y-95535368D01*
X240879255Y-95535368D01*
X241049522Y-95475789D01*
X241202262Y-95379816D01*
X241329816Y-95252262D01*
X241425789Y-95099522D01*
X241485368Y-94929255D01*
X241505565Y-94750000D01*
X241489565Y-94607999D01*
X241485369Y-94570750D01*
X241485368Y-94570745D01*
X241478563Y-94551297D01*
X241425789Y-94400478D01*
X241393963Y-94349828D01*
X241329815Y-94247737D01*
X241202262Y-94120184D01*
X241049523Y-94024211D01*
X240879254Y-93964631D01*
X240879249Y-93964630D01*
X240700004Y-93944435D01*
X240699996Y-93944435D01*
X240520750Y-93964630D01*
X240520745Y-93964631D01*
X240350474Y-94024212D01*
X240340477Y-94030494D01*
X240274506Y-94049500D01*
X237849784Y-94049500D01*
X237782745Y-94029815D01*
X237736990Y-93977011D01*
X237727046Y-93907853D01*
X237756071Y-93844297D01*
X237762103Y-93837819D01*
X237852136Y-93747785D01*
X237852139Y-93747782D01*
X237961632Y-93583914D01*
X238037051Y-93401835D01*
X238075500Y-93208541D01*
X238075500Y-93011459D01*
X238075500Y-93011456D01*
X238037052Y-92818170D01*
X238037051Y-92818169D01*
X238037051Y-92818165D01*
X238014352Y-92763364D01*
X237961635Y-92636092D01*
X237961628Y-92636079D01*
X237852139Y-92472218D01*
X237852136Y-92472214D01*
X237712785Y-92332863D01*
X237712781Y-92332860D01*
X237548920Y-92223371D01*
X237548907Y-92223364D01*
X237366839Y-92147950D01*
X237366829Y-92147947D01*
X237173543Y-92109500D01*
X237173541Y-92109500D01*
X236151459Y-92109500D01*
X236151454Y-92109500D01*
X236119391Y-92115876D01*
X236119392Y-92115877D01*
X235958170Y-92147946D01*
X235958164Y-92147948D01*
X235776088Y-92223366D01*
X235776079Y-92223371D01*
X235612219Y-92332859D01*
X235612215Y-92332862D01*
X235331901Y-92613177D01*
X235270578Y-92646662D01*
X235244220Y-92649496D01*
X235229699Y-92649496D01*
X235229615Y-92649500D01*
X233926457Y-92649500D01*
X233733170Y-92687947D01*
X233733160Y-92687950D01*
X233551092Y-92763364D01*
X233551079Y-92763371D01*
X233387218Y-92872860D01*
X233387214Y-92872863D01*
X233247863Y-93012214D01*
X233247860Y-93012218D01*
X233138371Y-93176079D01*
X233138364Y-93176092D01*
X233062950Y-93358160D01*
X233062947Y-93358170D01*
X233024500Y-93551456D01*
X233024500Y-93748545D01*
X233054887Y-93901309D01*
X233048660Y-93970900D01*
X233005797Y-94026078D01*
X232939907Y-94049322D01*
X232933270Y-94049500D01*
X217490517Y-94049500D01*
X217423478Y-94029815D01*
X217377723Y-93977011D01*
X217367779Y-93907853D01*
X217396804Y-93844297D01*
X217402836Y-93837819D01*
X219210840Y-92029815D01*
X221099842Y-90140813D01*
X221103300Y-90137488D01*
X221371344Y-89889707D01*
X221378706Y-89883419D01*
X221663422Y-89658961D01*
X221671281Y-89653250D01*
X221972736Y-89451820D01*
X221981020Y-89446744D01*
X222297335Y-89269595D01*
X222305988Y-89265187D01*
X222635225Y-89113402D01*
X222644205Y-89109682D01*
X222984336Y-88984198D01*
X222993577Y-88981195D01*
X223342505Y-88882784D01*
X223351964Y-88880513D01*
X223707530Y-88809785D01*
X223717135Y-88808263D01*
X224077168Y-88765648D01*
X224086838Y-88764887D01*
X224450507Y-88750595D01*
X224455376Y-88750500D01*
X236794932Y-88750500D01*
X236860904Y-88769506D01*
X236950477Y-88825789D01*
X236950481Y-88825790D01*
X237120737Y-88885366D01*
X237120743Y-88885367D01*
X237120745Y-88885368D01*
X237120746Y-88885368D01*
X237120750Y-88885369D01*
X237299996Y-88905565D01*
X237300000Y-88905565D01*
X237300004Y-88905565D01*
X237479249Y-88885369D01*
X237479252Y-88885368D01*
X237479255Y-88885368D01*
X237649522Y-88825789D01*
X237650488Y-88825181D01*
X237659523Y-88819506D01*
X237725494Y-88800500D01*
X238596073Y-88800500D01*
X238671519Y-88800500D01*
X238678472Y-88800695D01*
X238961294Y-88816578D01*
X238975095Y-88818133D01*
X239198803Y-88856142D01*
X239250920Y-88864998D01*
X239264477Y-88868092D01*
X239307591Y-88880513D01*
X239533335Y-88945550D01*
X239546432Y-88950133D01*
X239804933Y-89057208D01*
X239817440Y-89063231D01*
X240053928Y-89193936D01*
X240062309Y-89198568D01*
X240074081Y-89205965D01*
X240208416Y-89301282D01*
X240302254Y-89367865D01*
X240313125Y-89376534D01*
X240460950Y-89508641D01*
X240524509Y-89565441D01*
X240529562Y-89570219D01*
X240552195Y-89592852D01*
X240556974Y-89597906D01*
X240752817Y-89817054D01*
X240761475Y-89827911D01*
X240929524Y-90064754D01*
X240936917Y-90076519D01*
X241077389Y-90330685D01*
X241083422Y-90343214D01*
X241194544Y-90611490D01*
X241199137Y-90624614D01*
X241279531Y-90903665D01*
X241282625Y-90917223D01*
X241331265Y-91203504D01*
X241332822Y-91217322D01*
X241349305Y-91510846D01*
X241349500Y-91517798D01*
X241349500Y-92560204D01*
X241349505Y-92560317D01*
X241349505Y-92665439D01*
X241380819Y-93023378D01*
X241443209Y-93377209D01*
X241443213Y-93377226D01*
X241536202Y-93724274D01*
X241659092Y-94061914D01*
X241659095Y-94061922D01*
X241810932Y-94387540D01*
X241810945Y-94387564D01*
X241916707Y-94570750D01*
X241990594Y-94698726D01*
X241990598Y-94698732D01*
X241990605Y-94698743D01*
X242196682Y-94993052D01*
X242356486Y-95183498D01*
X242415345Y-95253644D01*
X242427641Y-95268297D01*
X242518349Y-95359005D01*
X242518357Y-95359020D01*
X242554668Y-95395331D01*
X242554668Y-95395332D01*
X242681701Y-95522366D01*
X242754478Y-95583433D01*
X242956943Y-95753322D01*
X243008800Y-95789632D01*
X243251271Y-95959411D01*
X243514349Y-96111299D01*
X243562431Y-96139059D01*
X243562455Y-96139072D01*
X243888075Y-96290910D01*
X243888078Y-96290911D01*
X243888080Y-96290912D01*
X244225716Y-96413801D01*
X244225717Y-96413801D01*
X244225722Y-96413803D01*
X244270456Y-96425789D01*
X244572779Y-96506795D01*
X244926625Y-96569186D01*
X245284563Y-96600501D01*
X245464216Y-96600500D01*
X249993605Y-96600500D01*
X249998474Y-96600596D01*
X250363160Y-96614926D01*
X250372831Y-96615687D01*
X250732874Y-96658303D01*
X250742448Y-96659819D01*
X251098047Y-96730554D01*
X251107478Y-96732818D01*
X251456412Y-96831230D01*
X251465641Y-96834228D01*
X251778579Y-96949678D01*
X251805780Y-96959713D01*
X251814775Y-96963439D01*
X252061675Y-97077262D01*
X252144004Y-97115216D01*
X252152656Y-97119624D01*
X252468992Y-97296781D01*
X252477257Y-97301846D01*
X252660855Y-97424523D01*
X252778702Y-97503266D01*
X252786564Y-97508978D01*
X253071274Y-97733424D01*
X253078667Y-97739739D01*
X253346871Y-97987663D01*
X253350381Y-97991038D01*
X254958630Y-99599287D01*
X254987990Y-99646013D01*
X255024209Y-99749519D01*
X255073614Y-99828147D01*
X255120184Y-99902262D01*
X255247738Y-100029816D01*
X255300206Y-100062784D01*
X255358217Y-100099235D01*
X255400478Y-100125789D01*
X255570745Y-100185368D01*
X255570750Y-100185369D01*
X255749996Y-100205565D01*
X255750000Y-100205565D01*
X255750004Y-100205565D01*
X255929249Y-100185369D01*
X255929252Y-100185368D01*
X255929255Y-100185368D01*
X256099522Y-100125789D01*
X256252262Y-100029816D01*
X256379816Y-99902262D01*
X256475789Y-99749522D01*
X256535368Y-99579255D01*
X256535369Y-99579249D01*
X256555565Y-99400003D01*
X256555565Y-99399996D01*
X256535369Y-99220750D01*
X256535368Y-99220745D01*
X256475789Y-99050478D01*
X256451615Y-99012006D01*
X256404319Y-98936735D01*
X256379816Y-98897738D01*
X256252262Y-98770184D01*
X256188077Y-98729854D01*
X256099519Y-98674209D01*
X255996013Y-98637990D01*
X255949287Y-98608630D01*
X254286097Y-96945439D01*
X254285916Y-96945275D01*
X254184006Y-96843366D01*
X254183998Y-96843358D01*
X254054908Y-96731501D01*
X253852437Y-96556058D01*
X253501207Y-96293130D01*
X253242944Y-96127156D01*
X253132131Y-96055941D01*
X252747071Y-95845681D01*
X252743408Y-95844008D01*
X252347998Y-95663430D01*
X252347995Y-95663429D01*
X252347991Y-95663427D01*
X251936927Y-95510107D01*
X251880132Y-95493430D01*
X251515970Y-95386500D01*
X251087278Y-95293242D01*
X250653012Y-95230802D01*
X250215404Y-95199500D01*
X250065030Y-95199500D01*
X250065029Y-95199500D01*
X247012722Y-95199500D01*
X246945683Y-95179815D01*
X246899928Y-95127011D01*
X246889984Y-95057853D01*
X246919009Y-94994297D01*
X246943827Y-94972399D01*
X247052692Y-94899658D01*
X247266337Y-94724320D01*
X247338394Y-94652262D01*
X249799288Y-92191366D01*
X249846012Y-92162008D01*
X249949522Y-92125789D01*
X250102262Y-92029816D01*
X250229816Y-91902262D01*
X250325789Y-91749522D01*
X250385368Y-91579255D01*
X250385369Y-91579249D01*
X250405565Y-91400003D01*
X250405565Y-91399996D01*
X250385369Y-91220750D01*
X250385368Y-91220745D01*
X250325788Y-91050476D01*
X250242059Y-90917223D01*
X250229816Y-90897738D01*
X250102262Y-90770184D01*
X249949523Y-90674211D01*
X249779254Y-90614631D01*
X249779249Y-90614630D01*
X249600004Y-90594435D01*
X249599996Y-90594435D01*
X249420750Y-90614630D01*
X249420745Y-90614631D01*
X249250476Y-90674211D01*
X249097737Y-90770184D01*
X248970184Y-90897737D01*
X248874212Y-91050475D01*
X248874211Y-91050476D01*
X248837992Y-91153984D01*
X248808632Y-91200709D01*
X246376248Y-93633093D01*
X246370327Y-93638639D01*
X246240639Y-93752375D01*
X246227770Y-93762250D01*
X246087724Y-93855827D01*
X246073677Y-93863937D01*
X245922608Y-93938437D01*
X245907623Y-93944644D01*
X245748130Y-93998786D01*
X245732463Y-94002984D01*
X245567271Y-94035844D01*
X245551189Y-94037962D01*
X245379196Y-94049235D01*
X245371086Y-94049500D01*
X244925494Y-94049500D01*
X244859523Y-94030494D01*
X244849525Y-94024212D01*
X244679254Y-93964631D01*
X244679249Y-93964630D01*
X244500004Y-93944435D01*
X244499996Y-93944435D01*
X244320750Y-93964630D01*
X244320745Y-93964631D01*
X244150476Y-94024211D01*
X243997737Y-94120184D01*
X243870184Y-94247737D01*
X243770506Y-94406374D01*
X243768800Y-94405302D01*
X243728579Y-94449835D01*
X243661149Y-94468137D01*
X243594529Y-94447077D01*
X243581074Y-94436623D01*
X243550564Y-94409358D01*
X243540730Y-94399525D01*
X243530020Y-94387540D01*
X243347177Y-94182939D01*
X243338518Y-94172079D01*
X243170475Y-93935245D01*
X243163088Y-93923490D01*
X243022607Y-93669309D01*
X243016578Y-93656787D01*
X242905452Y-93388503D01*
X242900859Y-93375378D01*
X242820469Y-93096335D01*
X242817375Y-93082779D01*
X242807332Y-93023670D01*
X242768732Y-92796482D01*
X242767178Y-92782686D01*
X242750695Y-92489152D01*
X242750500Y-92482200D01*
X242750500Y-91438948D01*
X242750494Y-91438830D01*
X242750494Y-91399996D01*
X242750495Y-91334563D01*
X242719180Y-90976626D01*
X242656789Y-90622780D01*
X242563795Y-90275718D01*
X242440906Y-89938082D01*
X242425575Y-89905205D01*
X242289066Y-89612458D01*
X242289054Y-89612434D01*
X242193390Y-89446739D01*
X242109406Y-89301274D01*
X242109398Y-89301263D01*
X242109394Y-89301256D01*
X241903317Y-89006947D01*
X241737879Y-88809786D01*
X241672361Y-88731705D01*
X241598454Y-88657798D01*
X241598434Y-88657776D01*
X241464669Y-88524011D01*
X241464485Y-88523843D01*
X241393488Y-88452846D01*
X241124575Y-88227198D01*
X240837028Y-88025852D01*
X240533019Y-87850330D01*
X240479310Y-87825285D01*
X240214870Y-87701973D01*
X239885002Y-87581909D01*
X239663033Y-87522432D01*
X239545927Y-87491053D01*
X239545920Y-87491052D01*
X239200223Y-87430095D01*
X238850522Y-87399500D01*
X238850519Y-87399500D01*
X238743993Y-87399500D01*
X237725494Y-87399500D01*
X237659523Y-87380494D01*
X237649525Y-87374212D01*
X237479254Y-87314631D01*
X237479249Y-87314630D01*
X237300004Y-87294435D01*
X237299996Y-87294435D01*
X237120750Y-87314630D01*
X237120745Y-87314631D01*
X237040983Y-87342542D01*
X237000028Y-87349500D01*
X224505360Y-87349500D01*
X224505223Y-87349460D01*
X224453958Y-87349460D01*
X224419022Y-87349460D01*
X224234593Y-87349461D01*
X223796981Y-87380763D01*
X223362713Y-87443204D01*
X222934014Y-87536466D01*
X222933999Y-87536470D01*
X222513050Y-87660077D01*
X222101998Y-87813395D01*
X221798615Y-87951949D01*
X221702913Y-87995656D01*
X221450604Y-88133431D01*
X221317848Y-88205923D01*
X220948777Y-88443114D01*
X220948761Y-88443125D01*
X220597561Y-88706036D01*
X220265999Y-88993342D01*
X220265985Y-88993355D01*
X220159667Y-89099675D01*
X220159666Y-89099674D01*
X220159664Y-89099678D01*
X216231858Y-93027482D01*
X216231761Y-93027588D01*
X216215659Y-93043690D01*
X216097142Y-93198140D01*
X216097139Y-93198144D01*
X215999805Y-93366730D01*
X215999803Y-93366734D01*
X215925298Y-93546600D01*
X215874910Y-93734647D01*
X215849501Y-93927649D01*
X215849235Y-93931709D01*
X215847458Y-93931592D01*
X215830494Y-93990478D01*
X215824209Y-94000479D01*
X215803550Y-94059521D01*
X215762828Y-94116297D01*
X215697876Y-94142044D01*
X215629314Y-94128588D01*
X215605979Y-94112858D01*
X215601427Y-94108970D01*
X215592788Y-94101592D01*
X215585645Y-94094988D01*
X214641367Y-93150710D01*
X214612006Y-93103983D01*
X214606989Y-93089646D01*
X214575789Y-93000478D01*
X214574067Y-92997738D01*
X214495601Y-92872860D01*
X214479816Y-92847738D01*
X214352262Y-92720184D01*
X214300962Y-92687950D01*
X214199523Y-92624211D01*
X214029254Y-92564631D01*
X214029249Y-92564630D01*
X213850004Y-92544435D01*
X213849996Y-92544435D01*
X213670750Y-92564630D01*
X213670745Y-92564631D01*
X213500476Y-92624211D01*
X213347737Y-92720184D01*
X213220184Y-92847737D01*
X213124211Y-93000476D01*
X213064631Y-93170745D01*
X213064630Y-93170750D01*
X213044435Y-93349996D01*
X213044435Y-93350003D01*
X213064630Y-93529249D01*
X213064631Y-93529254D01*
X213124211Y-93699523D01*
X213169764Y-93772019D01*
X213220184Y-93852262D01*
X213347738Y-93979816D01*
X213436906Y-94035844D01*
X213474587Y-94059521D01*
X213500478Y-94075789D01*
X213603984Y-94112007D01*
X213650710Y-94141367D01*
X214651580Y-95142238D01*
X214651875Y-95142505D01*
X214688261Y-95178892D01*
X214694037Y-95183498D01*
X214886505Y-95336991D01*
X215101205Y-95471900D01*
X215101210Y-95471902D01*
X215101211Y-95471903D01*
X215332794Y-95583433D01*
X215332303Y-95584450D01*
X215383053Y-95625339D01*
X215405124Y-95691631D01*
X215387851Y-95759332D01*
X215386197Y-95762040D01*
X215299210Y-95900478D01*
X215239629Y-96070753D01*
X215238799Y-96074391D01*
X215237618Y-96076500D01*
X215237333Y-96077317D01*
X215237189Y-96077266D01*
X215204683Y-96135366D01*
X215143018Y-96168217D01*
X215086436Y-96164461D01*
X215086044Y-96166181D01*
X215079253Y-96164631D01*
X214900004Y-96144435D01*
X214900000Y-96144435D01*
X214876233Y-96147112D01*
X214807412Y-96135055D01*
X214756034Y-96087704D01*
X214747797Y-96071352D01*
X214714780Y-95991638D01*
X214594501Y-95783304D01*
X214448057Y-95592452D01*
X214448053Y-95592448D01*
X214448050Y-95592444D01*
X214414916Y-95559310D01*
X214414888Y-95559280D01*
X214369304Y-95513697D01*
X214369297Y-95513685D01*
X214327805Y-95472194D01*
X214327806Y-95472194D01*
X214237184Y-95381573D01*
X214237179Y-95381569D01*
X214237177Y-95381567D01*
X214033835Y-95225537D01*
X213811855Y-95097379D01*
X213811845Y-95097374D01*
X213575066Y-94999298D01*
X213575053Y-94999294D01*
X213575054Y-94999294D01*
X213575051Y-94999293D01*
X213418089Y-94957235D01*
X213327469Y-94932954D01*
X213073346Y-94899500D01*
X213073344Y-94899500D01*
X213014184Y-94899500D01*
X205106527Y-94899500D01*
X205101332Y-94899500D01*
X205101190Y-94899506D01*
X205082072Y-94899506D01*
X204999700Y-94910348D01*
X204896730Y-94923902D01*
X204716178Y-94972277D01*
X204716168Y-94972280D01*
X204716168Y-94972281D01*
X204650951Y-94999294D01*
X204543462Y-95043816D01*
X204381570Y-95137282D01*
X204245038Y-95242045D01*
X204210508Y-95260709D01*
X204100479Y-95299210D01*
X204100475Y-95299212D01*
X203947737Y-95395184D01*
X203820184Y-95522737D01*
X203724211Y-95675476D01*
X203664631Y-95845745D01*
X203664630Y-95845750D01*
X203644435Y-96024996D01*
X203644435Y-96025003D01*
X203664630Y-96204249D01*
X203664631Y-96204254D01*
X203724211Y-96374523D01*
X203756424Y-96425789D01*
X203820184Y-96527262D01*
X203947738Y-96654816D01*
X204100478Y-96750789D01*
X204247728Y-96802314D01*
X204270745Y-96810368D01*
X204270750Y-96810369D01*
X204449996Y-96830565D01*
X204450000Y-96830565D01*
X204450004Y-96830565D01*
X204629249Y-96810369D01*
X204629252Y-96810368D01*
X204629255Y-96810368D01*
X204799522Y-96750789D01*
X204952262Y-96654816D01*
X205079816Y-96527262D01*
X205175789Y-96374522D01*
X205175791Y-96374514D01*
X205177631Y-96370698D01*
X205179476Y-96368654D01*
X205179494Y-96368626D01*
X205179498Y-96368629D01*
X205224454Y-96318838D01*
X205289351Y-96300500D01*
X207278044Y-96300500D01*
X207345083Y-96320185D01*
X207390838Y-96372989D01*
X207401264Y-96410616D01*
X207414630Y-96529250D01*
X207414631Y-96529254D01*
X207474211Y-96699523D01*
X207557677Y-96832357D01*
X207570184Y-96852262D01*
X207697738Y-96979816D01*
X207760904Y-97019506D01*
X207846021Y-97072989D01*
X207850478Y-97075789D01*
X207975786Y-97119636D01*
X208020745Y-97135368D01*
X208020750Y-97135369D01*
X208199996Y-97155565D01*
X208200000Y-97155565D01*
X208200004Y-97155565D01*
X208379249Y-97135369D01*
X208379251Y-97135368D01*
X208379255Y-97135368D01*
X208379258Y-97135366D01*
X208379262Y-97135366D01*
X208469377Y-97103832D01*
X208549522Y-97075789D01*
X208639096Y-97019505D01*
X208705068Y-97000500D01*
X210100228Y-97000500D01*
X210167267Y-97020185D01*
X210213022Y-97072989D01*
X210223448Y-97110617D01*
X210239630Y-97254249D01*
X210239631Y-97254254D01*
X210299211Y-97424523D01*
X210352285Y-97508989D01*
X210395184Y-97577262D01*
X210522738Y-97704816D01*
X210568255Y-97733416D01*
X210675474Y-97800787D01*
X210675478Y-97800789D01*
X210845745Y-97860368D01*
X210845750Y-97860369D01*
X211024996Y-97880565D01*
X211025000Y-97880565D01*
X211025004Y-97880565D01*
X211204249Y-97860369D01*
X211204252Y-97860368D01*
X211204255Y-97860368D01*
X211374522Y-97800789D01*
X211375488Y-97800181D01*
X211384523Y-97794506D01*
X211450494Y-97775500D01*
X212245854Y-97775500D01*
X212253964Y-97775766D01*
X212284828Y-97777789D01*
X212434467Y-97787597D01*
X212450538Y-97789713D01*
X212623978Y-97824212D01*
X212639633Y-97828407D01*
X212807084Y-97885249D01*
X212822056Y-97891450D01*
X212980658Y-97969664D01*
X212994693Y-97977767D01*
X213141728Y-98076010D01*
X213154596Y-98085884D01*
X213290153Y-98204762D01*
X213296074Y-98210308D01*
X213393571Y-98307801D01*
X213393588Y-98307817D01*
X213582627Y-98462949D01*
X213612097Y-98487133D01*
X213847142Y-98644178D01*
X213958395Y-98703641D01*
X214008239Y-98752602D01*
X214023701Y-98820739D01*
X213999871Y-98886419D01*
X213944315Y-98928789D01*
X213899943Y-98937000D01*
X175530718Y-98937000D01*
X175525309Y-98936882D01*
X175201050Y-98922725D01*
X175138817Y-98920007D01*
X175128043Y-98919065D01*
X174812650Y-98877544D01*
X174747188Y-98868926D01*
X174736538Y-98867048D01*
X174361486Y-98783901D01*
X174351039Y-98781102D01*
X173984674Y-98665589D01*
X173974508Y-98661889D01*
X173619599Y-98514881D01*
X173609795Y-98510309D01*
X173454079Y-98429249D01*
X173269045Y-98332926D01*
X173259689Y-98327525D01*
X173092087Y-98220750D01*
X172935705Y-98121123D01*
X172926844Y-98114919D01*
X172622072Y-97881060D01*
X172613785Y-97874106D01*
X172328676Y-97612852D01*
X172324768Y-97609111D01*
X171259964Y-96544307D01*
X171226479Y-96482984D01*
X171224425Y-96470508D01*
X171210369Y-96345750D01*
X171210368Y-96345745D01*
X171164639Y-96215060D01*
X171150789Y-96175478D01*
X171144947Y-96166181D01*
X171072122Y-96050281D01*
X171054816Y-96022738D01*
X170927262Y-95895184D01*
X170861752Y-95854021D01*
X170774523Y-95799211D01*
X170604254Y-95739631D01*
X170604249Y-95739630D01*
X170425004Y-95719435D01*
X170424996Y-95719435D01*
X170245750Y-95739630D01*
X170245745Y-95739631D01*
X170075476Y-95799211D01*
X169922737Y-95895184D01*
X169795184Y-96022737D01*
X169699212Y-96175475D01*
X169699211Y-96175476D01*
X169656491Y-96297561D01*
X169654012Y-96304055D01*
X169626420Y-96370670D01*
X169626418Y-96370678D01*
X169599500Y-96506003D01*
X169599500Y-96506006D01*
X169599500Y-96643994D01*
X169599500Y-96643996D01*
X169599499Y-96643996D01*
X165099737Y-96643996D01*
X168379184Y-89193947D01*
X168423079Y-89044509D01*
X168427161Y-88886495D01*
X168427160Y-88886494D01*
X168427161Y-88886492D01*
X168398103Y-88765650D01*
X168390206Y-88732808D01*
X168360826Y-88678743D01*
X168314739Y-88593932D01*
X168314738Y-88593930D01*
X168314734Y-88593923D01*
X166569734Y-86193923D01*
X166548022Y-86169480D01*
X166491341Y-86105670D01*
X166491339Y-86105669D01*
X166491337Y-86105666D01*
X166362319Y-86014345D01*
X166362318Y-86014344D01*
X166362312Y-86014341D01*
X166214067Y-85959528D01*
X166214061Y-85959527D01*
X166056668Y-85944950D01*
X166056666Y-85944950D01*
X166056664Y-85944950D01*
X165900867Y-85971603D01*
X165900861Y-85971605D01*
X165757270Y-86037675D01*
X165757266Y-86037678D01*
X165635669Y-86138659D01*
X165635664Y-86138666D01*
X165544348Y-86267676D01*
X165544337Y-86267693D01*
X161923888Y-93136922D01*
X161880166Y-93184099D01*
X161822736Y-93220185D01*
X161695184Y-93347737D01*
X161599211Y-93500476D01*
X161539631Y-93670745D01*
X161539630Y-93670750D01*
X161519435Y-93849995D01*
X161519435Y-93849997D01*
X161519435Y-93850000D01*
X161520203Y-93856813D01*
X161508147Y-93925635D01*
X161506678Y-93928511D01*
X160382652Y-96061171D01*
X160333981Y-96111299D01*
X160265934Y-96127156D01*
X160200117Y-96103707D01*
X160162464Y-96059635D01*
X158893503Y-93568282D01*
X158881998Y-93506966D01*
X158880565Y-93506966D01*
X158880565Y-93499997D01*
X158860369Y-93320750D01*
X158860368Y-93320745D01*
X158800789Y-93150478D01*
X158704816Y-92997738D01*
X158577262Y-92870184D01*
X158577260Y-92870182D01*
X158548401Y-92852049D01*
X158503881Y-92803335D01*
X158500397Y-92796495D01*
X155764544Y-87425186D01*
X155761944Y-87420141D01*
X155687986Y-87314631D01*
X155671219Y-87290710D01*
X155671218Y-87290709D01*
X155671216Y-87290706D01*
X155550078Y-87189163D01*
X155550076Y-87189162D01*
X155406788Y-87122433D01*
X155406788Y-87122432D01*
X155251107Y-87095063D01*
X155093649Y-87108919D01*
X154945141Y-87163056D01*
X154945137Y-87163058D01*
X154815710Y-87253780D01*
X154815706Y-87253784D01*
X154714160Y-87374925D01*
X153942669Y-88587268D01*
X153890070Y-88633258D01*
X153820957Y-88643510D01*
X153757272Y-88614770D01*
X153733441Y-88587268D01*
X153647900Y-88452846D01*
X152038635Y-85924001D01*
X152035566Y-85919228D01*
X152035563Y-85919225D01*
X152035561Y-85919221D01*
X151932892Y-85799047D01*
X151848860Y-85741311D01*
X151827596Y-85726700D01*
X151783490Y-85672514D01*
X151775681Y-85603082D01*
X151806649Y-85540450D01*
X151866562Y-85504504D01*
X151897817Y-85500500D01*
X262572183Y-85500500D01*
X262639222Y-85520185D01*
X262684977Y-85572989D01*
X262694921Y-85642147D01*
X262665896Y-85705703D01*
X262652112Y-85719301D01*
X262548858Y-85806356D01*
X262548856Y-85806358D01*
X262397934Y-85985361D01*
X262397929Y-85985368D01*
X262279425Y-86187310D01*
X262238857Y-86294810D01*
X262196755Y-86406374D01*
X262196754Y-86406376D01*
X262196754Y-86406378D01*
X262152295Y-86636255D01*
X262152295Y-86636256D01*
X262149501Y-86688847D01*
X262149500Y-86688886D01*
X262149500Y-88626113D01*
X262149501Y-88626152D01*
X262152295Y-88678743D01*
X262152295Y-88678744D01*
X262192256Y-88885366D01*
X262196755Y-88908626D01*
X262245326Y-89037332D01*
X262279425Y-89127689D01*
X262397929Y-89329631D01*
X262397934Y-89329638D01*
X262548856Y-89508641D01*
X262548858Y-89508643D01*
X262727861Y-89659565D01*
X262727868Y-89659570D01*
X262929810Y-89778074D01*
X263148874Y-89860745D01*
X263151517Y-89861256D01*
X263152537Y-89861782D01*
X263153950Y-89862183D01*
X263153868Y-89862470D01*
X263213598Y-89893314D01*
X263248493Y-89953846D01*
X263245122Y-90023634D01*
X263204556Y-90080521D01*
X263139674Y-90106446D01*
X263127969Y-90107000D01*
X259602129Y-90107000D01*
X259602123Y-90107001D01*
X259542516Y-90113408D01*
X259407671Y-90163702D01*
X259407664Y-90163706D01*
X259292455Y-90249952D01*
X259292452Y-90249955D01*
X259206206Y-90365164D01*
X259206202Y-90365171D01*
X259155908Y-90500017D01*
X259149501Y-90559616D01*
X259149501Y-90559623D01*
X259149500Y-90559635D01*
X259149500Y-94155370D01*
X259149501Y-94155376D01*
X259155908Y-94214983D01*
X259206202Y-94349828D01*
X259206206Y-94349835D01*
X259292452Y-94465044D01*
X259292455Y-94465047D01*
X259407664Y-94551293D01*
X259407671Y-94551297D01*
X259542517Y-94601591D01*
X259542516Y-94601591D01*
X259549444Y-94602335D01*
X259602127Y-94608000D01*
X263197872Y-94607999D01*
X263257483Y-94601591D01*
X263392331Y-94551296D01*
X263507546Y-94465046D01*
X263593796Y-94349831D01*
X263644091Y-94214983D01*
X263650500Y-94155373D01*
X263650499Y-91293303D01*
X265400000Y-91293303D01*
X265400000Y-92107500D01*
X266900000Y-92107500D01*
X266900000Y-92607500D01*
X265400001Y-92607500D01*
X265400001Y-93421697D01*
X265410400Y-93553832D01*
X265465377Y-93772019D01*
X265558428Y-93976874D01*
X265558431Y-93976880D01*
X265686559Y-94161823D01*
X265686569Y-94161835D01*
X265845664Y-94320930D01*
X265845676Y-94320940D01*
X266030619Y-94449068D01*
X266030625Y-94449071D01*
X266235480Y-94542122D01*
X266453667Y-94597099D01*
X266585810Y-94607499D01*
X267149999Y-94607499D01*
X267150000Y-94607498D01*
X267150000Y-93790512D01*
X267207007Y-93823425D01*
X267334174Y-93857500D01*
X267465826Y-93857500D01*
X267592993Y-93823425D01*
X267650000Y-93790512D01*
X267650000Y-94607499D01*
X268214182Y-94607499D01*
X268214197Y-94607498D01*
X268346332Y-94597099D01*
X268564519Y-94542122D01*
X268769374Y-94449071D01*
X268769380Y-94449068D01*
X268954323Y-94320940D01*
X268954335Y-94320930D01*
X269113430Y-94161835D01*
X269113440Y-94161823D01*
X269241568Y-93976880D01*
X269241571Y-93976874D01*
X269334622Y-93772019D01*
X269389599Y-93553832D01*
X269399999Y-93421696D01*
X269400000Y-93421684D01*
X269400000Y-92607500D01*
X267900000Y-92607500D01*
X267900000Y-92107500D01*
X269399999Y-92107500D01*
X269399999Y-91293317D01*
X269399998Y-91293302D01*
X269389599Y-91161167D01*
X269334622Y-90942980D01*
X269241571Y-90738125D01*
X269241568Y-90738119D01*
X269113440Y-90553176D01*
X269113430Y-90553164D01*
X268954335Y-90394069D01*
X268954323Y-90394059D01*
X268769380Y-90265931D01*
X268769374Y-90265928D01*
X268564519Y-90172877D01*
X268346332Y-90117900D01*
X268214196Y-90107500D01*
X267650000Y-90107500D01*
X267650000Y-90924488D01*
X267592993Y-90891575D01*
X267465826Y-90857500D01*
X267334174Y-90857500D01*
X267207007Y-90891575D01*
X267150000Y-90924488D01*
X267150000Y-90107500D01*
X266585817Y-90107500D01*
X266585802Y-90107501D01*
X266453667Y-90117900D01*
X266235480Y-90172877D01*
X266030625Y-90265928D01*
X266030619Y-90265931D01*
X265845676Y-90394059D01*
X265845664Y-90394069D01*
X265686569Y-90553164D01*
X265686559Y-90553176D01*
X265558431Y-90738119D01*
X265558428Y-90738125D01*
X265465377Y-90942980D01*
X265410400Y-91161167D01*
X265400000Y-91293303D01*
X263650499Y-91293303D01*
X263650499Y-90559628D01*
X263644091Y-90500017D01*
X263604571Y-90394059D01*
X263593797Y-90365171D01*
X263593793Y-90365164D01*
X263507547Y-90249955D01*
X263507544Y-90249952D01*
X263392335Y-90163706D01*
X263392328Y-90163702D01*
X263345061Y-90146073D01*
X263289127Y-90104202D01*
X263264710Y-90038738D01*
X263279562Y-89970465D01*
X263328967Y-89921059D01*
X263394972Y-89906066D01*
X263408053Y-89906761D01*
X263431349Y-89907999D01*
X263431369Y-89907999D01*
X263431378Y-89908000D01*
X263431386Y-89908000D01*
X265368614Y-89908000D01*
X265368622Y-89908000D01*
X265421241Y-89905205D01*
X265651126Y-89860745D01*
X265870190Y-89778074D01*
X266072132Y-89659570D01*
X266178108Y-89570219D01*
X266251141Y-89508643D01*
X266251143Y-89508641D01*
X266402065Y-89329638D01*
X266402065Y-89329637D01*
X266402070Y-89329632D01*
X266520574Y-89127690D01*
X266603245Y-88908626D01*
X266647705Y-88678741D01*
X266650500Y-88626122D01*
X266650500Y-86688878D01*
X266647705Y-86636259D01*
X266603245Y-86406374D01*
X266520574Y-86187310D01*
X266402070Y-85985368D01*
X266402065Y-85985361D01*
X266251143Y-85806358D01*
X266251141Y-85806356D01*
X266147888Y-85719301D01*
X266109323Y-85661039D01*
X266108379Y-85591176D01*
X266145356Y-85531893D01*
X266208513Y-85502012D01*
X266227817Y-85500500D01*
X269875500Y-85500500D01*
X269942539Y-85520185D01*
X269988294Y-85572989D01*
X269999500Y-85624500D01*
X269999500Y-102375500D01*
X269979815Y-102442539D01*
X269927011Y-102488294D01*
X269875500Y-102499500D01*
X111274500Y-102499500D01*
X111207461Y-102479815D01*
X111161706Y-102427011D01*
X111150500Y-102375500D01*
X111150500Y-85624500D01*
X111170185Y-85557461D01*
X111222989Y-85511706D01*
X111274500Y-85500500D01*
X151154812Y-85500500D01*
X151221851Y-85520185D01*
G37*
%TD.AperFunction*%
%TD*%
M02*
