M48
; DRILL file {KiCad 8.0.6} date 2024-11-15T02:18:58-0500
; FORMAT={-:-/ absolute / inch / decimal}
; #@! TF.CreationDate,2024-11-15T02:18:58-05:00
; #@! TF.GenerationSoftware,Kicad,Pcbnew,8.0.6
; #@! TF.FileFunction,Plated,1,2,PTH
FMAT,2
INCH
; #@! TA.AperFunction,Plated,PTH,ViaDrill
T1C0.0118
; #@! TA.AperFunction,Plated,PTH,ComponentDrill
T2C0.0394
%
G90
G05
T1
X4.4843Y-3.5575
X4.688Y-3.5945
X4.6939Y-3.628
X4.7293Y-3.6319
X4.7352Y-3.6673
X4.7707Y-3.7106
X4.7726Y-3.6732
X4.8002Y-3.7205
X4.8061Y-3.7559
X4.8396Y-3.7539
X5.0344Y-3.7224
X5.0364Y-3.7795
X5.0758Y-3.685
X5.0797Y-3.7402
X5.1171Y-3.7028
X5.2726Y-3.6988
X5.31Y-3.7362
X5.314Y-3.6811
X5.3533Y-3.7756
X5.3553Y-3.7185
X5.5738Y-3.7244
X5.5896Y-3.7579
X5.6152Y-3.685
X5.6152Y-3.7244
X5.6506Y-3.6949
X5.8415Y-3.6693
X5.8474Y-3.7028
X5.8829Y-3.7067
X5.8888Y-3.7421
X5.9222Y-3.7402
X6.1407Y-3.7008
X6.1427Y-3.7579
X6.1821Y-3.6634
X6.186Y-3.7185
X6.2234Y-3.6811
X6.3907Y-3.6949
X6.4281Y-3.7323
X6.4321Y-3.6772
X6.4715Y-3.7717
X6.4734Y-3.7146
X6.7096Y-3.8002
X7.0898Y-4.0
X8.0492Y-3.7805
X8.1969Y-3.7933
X8.25Y-3.9503
X8.3081Y-3.8219
X8.3268Y-3.8784
X8.3927Y-3.7913
X8.4193Y-3.6752
X8.4606Y-3.8169
X8.461Y-3.3953
X8.5049Y-3.7894
X8.5256Y-3.7146
X8.5384Y-3.8445
X8.7077Y-3.6132
X8.7165Y-3.8681
X8.8268Y-3.9144
X8.928Y-3.6181
X8.9567Y-3.8819
X9.0736Y-3.9795
X9.0969Y-3.9563
X9.15Y-3.7579
X9.1603Y-3.7894
X9.1795Y-4.0
X9.2136Y-3.687
X9.2173Y-3.5323
X9.2335Y-3.9425
X9.3012Y-3.6657
X9.3337Y-3.6657
X9.3415Y-3.7628
X9.3425Y-3.4685
X9.4478Y-3.7677
X9.4646Y-3.6378
X9.4764Y-3.7303
X9.501Y-3.8022
X9.626Y-3.7303
X9.6673Y-3.6437
X9.8268Y-3.5984
X9.8543Y-3.7106
X9.9492Y-3.8744
X10.0213Y-3.7972
X10.0551Y-3.5197
X10.0689Y-3.9134
X10.2252Y-3.7547
X10.4114Y-3.5984
X10.4114Y-3.6535
X10.4114Y-3.7067
T2
G00X10.2913Y-3.6755
M15
G01X10.2913Y-3.5968
M16
G05
G00X10.4488Y-3.4511
M15
G01X10.3701Y-3.4511
M16
G05
G00X10.5276Y-3.6755
M15
G01X10.5276Y-3.5968
M16
G05
M30
